<svg xmlns="http://www.w3.org/2000/svg" viewBox="0 0 64 64"><defs><style>.cls-1{fill:#00bebd;}.cls-2{fill:#50d9d7;}.cls-3{fill:#00aaa8;}.cls-4{fill:#ffac00;}.cls-5{fill:#ea9706;}.cls-6{fill:#f3f3f3;}</style></defs><title>Anti Virus</title><g id="Anti_Virus" data-name="Anti Virus"><path class="cls-1" d="M26,17a1,1,0,0,1-.71-.29A7.78,7.78,0,0,1,23,11.17V10a1,1,0,0,1,2,0v1.17a5.79,5.79,0,0,0,1.71,4.12A1,1,0,0,1,26,17Z"/><path class="cls-1" d="M34,17a1,1,0,0,1-.71-1.71A5.79,5.79,0,0,0,35,11.17V10a1,1,0,0,1,2,0v1.17a7.78,7.78,0,0,1-2.29,5.54A1,1,0,0,1,34,17Z"/><path class="cls-1" d="M20,35H9a1,1,0,0,1,0-2H20a1,1,0,0,1,0,2Z"/><path class="cls-2" d="M30,50A11,11,0,0,1,19,39V26a2,2,0,0,1,2-2H39a2,2,0,0,1,2,2V39A11,11,0,0,1,30,50Z"/><path class="cls-1" d="M20,31c-.13,0-1.32-.21-5-.82a3,3,0,0,1-2.31-1.91l-2.6-6.92a1,1,0,1,1,1.88-.7l2.59,6.92a1,1,0,0,0,.77.63l4.86.81A1,1,0,0,1,21,30.16,1,1,0,0,1,20,31Z"/><path class="cls-1" d="M51,35H40a1,1,0,0,1,0-2H51a1,1,0,0,1,0,2Z"/><path class="cls-1" d="M11,48a1,1,0,0,1-.94-1.35l2.6-6.92A3,3,0,0,1,15,37.82L19.84,37a1,1,0,0,1,.32,2l-4.86.81a1,1,0,0,0-.77.63l-2.59,6.92A1,1,0,0,1,11,48Z"/><path class="cls-1" d="M49.35,47.94a1,1,0,0,1-1.29-.59l-2.59-6.92a1,1,0,0,0-.77-.63L39.84,39a1,1,0,0,1,.32-2c5.15.86,5.44.78,6.21,1.41a2.9,2.9,0,0,1,1,1.31l2.6,6.92A1,1,0,0,1,49.35,47.94Z"/><path class="cls-1" d="M40,31a1,1,0,0,1-1-.84A1,1,0,0,1,39.84,29l4.86-.81a1,1,0,0,0,.77-.63l2.59-6.92a1,1,0,0,1,1.88.7l-2.6,6.92A3,3,0,0,1,45,30.18C41.32,30.79,40.13,31,40,31Z"/><path class="cls-2" d="M41,26c0,14.31.06,13.63-.17,14.92A11,11,0,0,1,19,39V26a2,2,0,0,1,2-2H39A2,2,0,0,1,41,26Z"/><path class="cls-1" d="M24,21H36a2,2,0,0,1,2,2v1a0,0,0,0,1,0,0H22a0,0,0,0,1,0,0V23A2,2,0,0,1,24,21Z"/><path class="cls-2" d="M30,13a6,6,0,0,0-6,6v2H36V19A6,6,0,0,0,30,13Z"/><path class="cls-1" d="M31,24V50a9.55,9.55,0,0,1-2,0V24Z"/><path class="cls-3" d="M49.35,47.94a1,1,0,0,1-1.29-.59l-2.59-6.92a1,1,0,0,0-.77-.63l-1.27-.21,2.94-1.17a2.9,2.9,0,0,1,1,1.31l2.6,6.92A1,1,0,0,1,49.35,47.94Z"/><path class="cls-4" d="M30,0A30,30,0,1,0,58.87,38.12,30,30,0,0,0,30,0ZM4,30A26,26,0,0,1,46.9,10.27L10.27,46.9A25.89,25.89,0,0,1,4,30ZM49.94,46.65h0A26,26,0,0,1,13.1,49.73L49.73,13.1A25.91,25.91,0,0,1,49.94,46.65Z"/><path class="cls-5" d="M58.87,38.12A30.07,30.07,0,0,1,42,57.51a16.79,16.79,0,0,1-1.43-3.75A26,26,0,0,0,48.77,48a1,1,0,0,0,1.17-1.31,25.6,25.6,0,0,0,5.2-10Z"/><path class="cls-2" d="M53,39,43,43v6.56A14,14,0,0,0,53,63,14,14,0,0,0,63,49.56V43Z"/><path class="cls-1" d="M40.83,40.92A10.91,10.91,0,0,1,40,43.59V43A3,3,0,0,1,40.83,40.92Z"/><path class="cls-1" d="M52.71,64A14.93,14.93,0,0,1,42,49.56V43a1,1,0,0,1,.63-.93l10-4a1,1,0,0,1,.74,0l10,4A1,1,0,0,1,64,43v6.56A14.93,14.93,0,0,1,53.29,64,1,1,0,0,1,52.71,64ZM44,43.68v5.88A12.94,12.94,0,0,0,53,62a12.94,12.94,0,0,0,9-12.39V43.68l-9-3.6Z"/><path class="cls-6" d="M52.29,54.71l-3-3a1,1,0,0,1,1.42-1.42L53,52.59l4.29-4.3a1,1,0,0,1,1.42,1.42l-5,5A1,1,0,0,1,52.29,54.71Z"/></g></svg>