<svg xmlns="http://www.w3.org/2000/svg" viewBox="0 0 64 64"><defs><style>.cls-1{fill:#50d9d7;}.cls-2{fill:#93e6e5;}.cls-3{fill:#f3f3f3;}.cls-4{fill:#d9d9d9;}.cls-5{fill:#ea9706;}.cls-6{fill:#ffac00;}.cls-7{fill:#fff;}.cls-8{fill:#00bebd;}</style></defs><title>API</title><g id="API"><rect class="cls-1" x="6" y="-0.01" width="58" height="41" rx="2"/><path class="cls-2" d="M51,48H17V0H36.53A4,4,0,0,1,40.11,2.2l.78,1.58A4,4,0,0,0,44.47,6H51Z"/><path class="cls-3" d="M64,6V52a2,2,0,0,1-2,2H2a2,2,0,0,1-2-2V2A2,2,0,0,1,2,0H19.53a4,4,0,0,1,3.58,2.21l.78,1.58A4,4,0,0,0,27.47,6Z"/><path class="cls-4" d="M45.86,54H18.14a14,14,0,1,1,27.72,0Z"/><circle class="cls-5" cx="32" cy="52" r="12"/><circle class="cls-6" cx="32" cy="52" r="10"/><path class="cls-7" d="M28,56a1,1,0,0,1-.71-.29l-3-3a1,1,0,0,1,0-1.42l3-3a1,1,0,0,1,1.42,1.42L26.41,52l2.3,2.29A1,1,0,0,1,28,56Z"/><path class="cls-7" d="M36,56a1,1,0,0,1-.71-1.71L37.59,52l-2.3-2.29a1,1,0,0,1,1.42-1.42l3,3a1,1,0,0,1,0,1.42l-3,3A1,1,0,0,1,36,56Z"/><path class="cls-7" d="M31,58a1,1,0,0,1-1-1.2l2-10a1,1,0,1,1,2,.4l-2,10A1,1,0,0,1,31,58Z"/><circle class="cls-8" cx="60" cy="2.99" r="1"/><circle class="cls-8" cx="56" cy="2.99" r="1"/><circle class="cls-8" cx="52" cy="2.99" r="1"/><circle class="cls-2" cx="20" cy="2.99" r="1"/><path class="cls-1" d="M12,21a1,1,0,0,1-.94-.65L9,14.85l-2.06,5.5a1,1,0,1,1-1.88-.7l3-8a1,1,0,0,1,1.88,0l3,8A1,1,0,0,1,12,21Z"/><path class="cls-1" d="M11,19H7a1,1,0,0,1,0-2h4a1,1,0,0,1,0,2Z"/><path class="cls-1" d="M16,21a1,1,0,0,1-1-1V12a1,1,0,0,1,2,0v8A1,1,0,0,1,16,21Z"/><path class="cls-1" d="M18.5,18H16a1,1,0,0,1-1-1V12a1,1,0,0,1,1-1h2.5a3.5,3.5,0,0,1,0,7ZM17,16h1.5a1.5,1.5,0,0,0,0-3H17Z"/><path class="cls-1" d="M25,21a1,1,0,0,1-1-1V12a1,1,0,0,1,2,0v8A1,1,0,0,1,25,21Z"/><circle class="cls-4" cx="29" cy="20" r="1"/><circle class="cls-4" cx="33" cy="20" r="1"/><circle class="cls-4" cx="37" cy="20" r="1"/><rect class="cls-4" x="5" y="25" width="6" height="2"/><rect class="cls-4" x="15" y="25" width="44" height="2"/><rect class="cls-4" x="5" y="29" width="6" height="2"/><rect class="cls-4" x="15" y="29" width="44" height="2"/><rect class="cls-4" x="5" y="33" width="6" height="2"/><rect class="cls-4" x="5" y="37" width="6" height="2"/><rect class="cls-4" x="15" y="33" width="44" height="2"/></g></svg>