<svg xmlns="http://www.w3.org/2000/svg" viewBox="0 0 64 64"><defs><style>.cls-1{fill:#50d9d7;}.cls-2{fill:#f3f3f3;}.cls-3{fill:#d9d9d9;}.cls-4{fill:#00bebd;}.cls-5{fill:#fff;}.cls-6{fill:#ffac00;}</style></defs><title>Book</title><g id="Book"><path class="cls-1" d="M12,0H52a5,5,0,0,1,5,5V55a0,0,0,0,1,0,0H7a0,0,0,0,1,0,0V5A5,5,0,0,1,12,0Z"/><path class="cls-2" d="M12,60H57V50H12a5,5,0,0,0,0,10Z"/><path class="cls-3" d="M12,56H57V54H12a1,1,0,0,0,0,2Z"/><rect class="cls-4" x="16" y="4" width="32" height="18" rx="2"/><path class="cls-5" d="M27,17a1,1,0,0,1-.71-.29l-3-3a1,1,0,0,1,0-1.42l3-3a1,1,0,0,1,1.42,1.42L25.41,13l2.3,2.29A1,1,0,0,1,27,17Z"/><path class="cls-5" d="M37,17a1,1,0,0,1-.71-1.71L38.59,13l-2.3-2.29a1,1,0,0,1,1.42-1.42l3,3a1,1,0,0,1,0,1.42l-3,3A1,1,0,0,1,37,17Z"/><path class="cls-5" d="M31,19a1,1,0,0,1-1-1.2l2-10a1,1,0,0,1,2,.4l-2,10A1,1,0,0,1,31,19Z"/><path class="cls-6" d="M24,64c-.33,0-.16,0-4-1.88l-3.55,1.77A1,1,0,0,1,15,63V54H25v9A1,1,0,0,1,24,64Z"/><path class="cls-4" d="M46,30H18a1,1,0,0,1,0-2H46a1,1,0,0,1,0,2Z"/><path class="cls-4" d="M41,36H23a1,1,0,0,1,0-2H41a1,1,0,0,1,0,2Z"/></g></svg>