<svg xmlns="http://www.w3.org/2000/svg" viewBox="0 0 64 64"><defs><style>.cls-1{fill:#00bebd;}.cls-2{fill:#00aaa8;}.cls-3{fill:#ffac00;}.cls-4{fill:#ea9706;}.cls-5{fill:#f3f3f3;}.cls-6{fill:#93e6e5;}.cls-7{fill:#50d9d7;}</style></defs><title>Box</title><g id="Box"><circle class="cls-1" cx="17" cy="30" r="10"/><circle class="cls-2" cx="17" cy="30" r="7"/><circle class="cls-3" cx="46" cy="32" r="6"/><path class="cls-4" d="M49,23.11V20.89A1.89,1.89,0,0,0,47.11,19a1.88,1.88,0,0,1-1.79-1.29,13.58,13.58,0,0,0-.86-2.08,1.89,1.89,0,0,1,.34-2.19,1.9,1.9,0,0,0,0-2.68L43.24,9.2a1.9,1.9,0,0,0-2.68,0,1.87,1.87,0,0,1-2.19.34,13.58,13.58,0,0,0-2.08-.86A1.89,1.89,0,0,1,35,6.89,1.89,1.89,0,0,0,33.11,5H30.89A1.89,1.89,0,0,0,29,6.89a1.88,1.88,0,0,1-1.29,1.79,13.58,13.58,0,0,0-2.08.86,1.89,1.89,0,0,1-2.19-.34,1.9,1.9,0,0,0-2.68,0L19.2,10.76a1.9,1.9,0,0,0,0,2.68,1.87,1.87,0,0,1,.34,2.19,13.58,13.58,0,0,0-.86,2.08A1.89,1.89,0,0,1,16.89,19,1.89,1.89,0,0,0,15,20.89v2.22A1.89,1.89,0,0,0,16.89,25a1.88,1.88,0,0,1,1.79,1.29,13.58,13.58,0,0,0,.86,2.08,1.89,1.89,0,0,1-.34,2.19,1.9,1.9,0,0,0,0,2.68l1.56,1.56a1.9,1.9,0,0,0,2.68,0,1.87,1.87,0,0,1,2.19-.34,13.58,13.58,0,0,0,2.08.86A1.89,1.89,0,0,1,29,37.11,1.89,1.89,0,0,0,30.89,39h2.22A1.89,1.89,0,0,0,35,37.11a1.88,1.88,0,0,1,1.29-1.79,13.58,13.58,0,0,0,2.08-.86,1.89,1.89,0,0,1,2.19.34,1.9,1.9,0,0,0,2.68,0l1.56-1.56a1.9,1.9,0,0,0,0-2.68,1.87,1.87,0,0,1-.34-2.19,13.58,13.58,0,0,0,.86-2.08A1.89,1.89,0,0,1,47.11,25,1.89,1.89,0,0,0,49,23.11Z"/><circle class="cls-3" cx="32" cy="22" r="10"/><path class="cls-3" d="M63.26,10.28a6.29,6.29,0,0,0-3.1,4.2l-.14.67a1,1,0,0,1-2,0l-.14-.67a6.29,6.29,0,0,0-3.1-4.2,1.48,1.48,0,0,1,0-2.56,6.29,6.29,0,0,0,3.1-4.2L58,2.85a1,1,0,0,1,2,0l.14.67a6.29,6.29,0,0,0,3.1,4.2A1.48,1.48,0,0,1,63.26,10.28Z"/><path class="cls-3" d="M9.26,8.28a6.29,6.29,0,0,0-3.1,4.2L6,13.15a1,1,0,0,1-2,0l-.14-.67a6.29,6.29,0,0,0-3.1-4.2,1.48,1.48,0,0,1,0-2.56,6.29,6.29,0,0,0,3.1-4.2L4,.85a1,1,0,0,1,2,0l.14.67a6.29,6.29,0,0,0,3.1,4.2A1.48,1.48,0,0,1,9.26,8.28Z"/><path class="cls-5" d="M28,26a1,1,0,0,1-.71-.29l-3-3a1,1,0,0,1,0-1.42l3-3a1,1,0,0,1,1.42,1.42L26.41,22l2.3,2.29A1,1,0,0,1,28,26Z"/><path class="cls-5" d="M36,26a1,1,0,0,1-.71-1.71L37.59,22l-2.3-2.29a1,1,0,0,1,1.42-1.42l3,3a1,1,0,0,1,0,1.42l-3,3A1,1,0,0,1,36,26Z"/><path class="cls-5" d="M31,27a1,1,0,0,1-1-1.24l2-8a1,1,0,0,1,1.94.48l-2,8A1,1,0,0,1,31,27Z"/><path class="cls-6" d="M6,30H32a0,0,0,0,1,0,0V64a0,0,0,0,1,0,0H8a2,2,0,0,1-2-2V30A0,0,0,0,1,6,30Z"/><path class="cls-7" d="M32,30H58a0,0,0,0,1,0,0V62a2,2,0,0,1-2,2H32a0,0,0,0,1,0,0V30A0,0,0,0,1,32,30Z"/><path class="cls-7" d="M6,30,1.41,35.35A1,1,0,0,0,2.17,37H23.34a4,4,0,0,0,2.83-1.17L32,30Z"/><path class="cls-1" d="M58,30l4.59,5.35A1,1,0,0,1,61.83,37H40.66a4,4,0,0,1-2.83-1.17L32,30Z"/><rect class="cls-5" x="9" y="57" width="8" height="4" rx="1"/><circle class="cls-5" cx="37" cy="59" r="2"/><circle class="cls-5" cx="44" cy="59" r="2"/></g></svg>