<svg xmlns="http://www.w3.org/2000/svg" viewBox="0 0 64 64"><defs><style>.cls-1{fill:#ffac00;}.cls-2{fill:#d9d9d9;}.cls-3{fill:#c8c8c8;}.cls-4{fill:#f3f3f3;}.cls-5{fill:#00bebd;}.cls-6{fill:#50d9d7;}.cls-7{fill:#fff;}</style></defs><title>Brain Storming</title><g id="Brain_Storming" data-name="Brain Storming"><path class="cls-1" d="M52,28A20,20,0,1,0,19.34,43.46a15.46,15.46,0,0,1,5.34,8.93h0a2,2,0,0,0,2,1.61H37.36a2,2,0,0,0,2-1.61,15.41,15.41,0,0,1,5.31-8.91A19.89,19.89,0,0,0,52,28Z"/><path class="cls-2" d="M32,64a6,6,0,0,1-6-6V54H38v4A6,6,0,0,1,32,64Z"/><path class="cls-1" d="M32,6a1,1,0,0,1-1-1V1a1,1,0,0,1,2,0V5A1,1,0,0,1,32,6Z"/><path class="cls-1" d="M16.44,12.44a1,1,0,0,1-1.41,0L12.2,9.62A1,1,0,0,1,13.62,8.2L16.44,11A1,1,0,0,1,16.44,12.44Z"/><path class="cls-1" d="M10,28a1,1,0,0,1-1,1H5a1,1,0,0,1,0-2H9A1,1,0,0,1,10,28Z"/><path class="cls-1" d="M16.44,43.56a1,1,0,0,1,0,1.41L13.62,47.8a1,1,0,1,1-1.42-1.42L15,43.56A1,1,0,0,1,16.44,43.56Z"/><path class="cls-1" d="M47.56,43.56a1,1,0,0,1,1.41,0l2.83,2.82a1,1,0,1,1-1.42,1.42L47.56,45A1,1,0,0,1,47.56,43.56Z"/><path class="cls-1" d="M54,28a1,1,0,0,1,1-1h4a1,1,0,0,1,0,2H55A1,1,0,0,1,54,28Z"/><path class="cls-1" d="M47.56,12.44a1,1,0,0,1,0-1.41L50.38,8.2A1,1,0,1,1,51.8,9.62L49,12.44A1,1,0,0,1,47.56,12.44Z"/><path class="cls-3" d="M39,58H25a1,1,0,0,1,0-2H39a1,1,0,0,1,0,2Z"/><path class="cls-3" d="M38,62H26a1,1,0,0,1,0-2H38a1,1,0,0,1,0,2Z"/><circle class="cls-4" cx="32" cy="28" r="16"/><path class="cls-5" d="M46,29.62V26.38A1.38,1.38,0,0,0,44.62,25a1.36,1.36,0,0,1-1.28-.89,11,11,0,0,0-.57-1.37,1.39,1.39,0,0,1,.28-1.55,1.36,1.36,0,0,0,0-1.94L40.75,17a1.36,1.36,0,0,0-1.94,0,1.38,1.38,0,0,1-1.55.28,11,11,0,0,0-1.37-.57A1.37,1.37,0,0,1,35,15.38,1.38,1.38,0,0,0,33.62,14H30.38A1.38,1.38,0,0,0,29,15.38a1.36,1.36,0,0,1-.89,1.28,11,11,0,0,0-1.37.57A1.39,1.39,0,0,1,25.19,17a1.36,1.36,0,0,0-1.94,0L21,19.25a1.36,1.36,0,0,0,0,1.94,1.38,1.38,0,0,1,.28,1.55,11,11,0,0,0-.57,1.37,1.37,1.37,0,0,1-1.28.89A1.38,1.38,0,0,0,18,26.38v3.24A1.38,1.38,0,0,0,19.38,31a1.36,1.36,0,0,1,1.28.89,11,11,0,0,0,.57,1.37A1.39,1.39,0,0,1,21,34.81a1.36,1.36,0,0,0,0,1.94l2.3,2.3a1.36,1.36,0,0,0,1.94,0,1.38,1.38,0,0,1,1.55-.28,11,11,0,0,0,1.37.57A1.37,1.37,0,0,1,29,40.62,1.38,1.38,0,0,0,30.38,42h3.24A1.38,1.38,0,0,0,35,40.62a1.36,1.36,0,0,1,.89-1.28,11,11,0,0,0,1.37-.57,1.39,1.39,0,0,1,1.55.28,1.36,1.36,0,0,0,1.94,0l2.3-2.3a1.36,1.36,0,0,0,0-1.94,1.38,1.38,0,0,1-.28-1.55,11,11,0,0,0,.57-1.37A1.37,1.37,0,0,1,44.62,31,1.38,1.38,0,0,0,46,29.62Z"/><circle class="cls-6" cx="32" cy="28" r="9"/><path class="cls-7" d="M28,31c-.54,0-.57-.15-2.71-2.29a1,1,0,0,1,0-1.42l2-2a1,1,0,0,1,1.42,1.42L27.41,28l1.3,1.29A1,1,0,0,1,28,31Z"/><path class="cls-7" d="M36,31a1,1,0,0,1-.71-1.71L36.59,28l-1.3-1.29a1,1,0,0,1,1.42-1.42l2,2a1,1,0,0,1,0,1.42C36.53,30.89,36.54,31,36,31Z"/><path class="cls-7" d="M31,33a1,1,0,0,1-1-1.24l2-8a1,1,0,0,1,1.94.48l-2,8A1,1,0,0,1,31,33Z"/></g></svg>