<svg xmlns="http://www.w3.org/2000/svg" viewBox="0 0 64 64"><defs><style>.cls-1{fill:#50d9d7;}.cls-2{fill:#93e6e5;}.cls-3{fill:#f3f3f3;}.cls-4{fill:#d9d9d9;}.cls-5{fill:#ffac00;}.cls-6{fill:#00bebd;}</style></defs><title>Broken</title><g id="Broken"><path class="cls-1" d="M34,0H56a2,2,0,0,1,2,2V8a2,2,0,0,1-2,2H34a0,0,0,0,1,0,0V0A0,0,0,0,1,34,0Z"/><path class="cls-2" d="M45,6V52H15V0H27l1,2,3,1L30,1l.66-1h3.87a4,4,0,0,1,3.58,2.21l.78,1.58A4,4,0,0,0,42.47,6Z"/><path class="cls-3" d="M56,18l-3-1,3,4h2V52a2,2,0,0,1-2,2H14l-3-4v2L9,54H2a2,2,0,0,1-2-2V2A2,2,0,0,1,2,0H17.53a4,4,0,0,1,3.58,2.21l.78,1.58A4,4,0,0,0,25.47,6H58V16Z"/><rect class="cls-4" x="11" y="17" width="2" height="30"/><rect class="cls-1" x="4" y="19" width="4" height="2"/><rect class="cls-1" x="4" y="25" width="4" height="2"/><rect class="cls-1" x="4" y="31" width="4" height="2"/><rect class="cls-1" x="4" y="37" width="4" height="2"/><rect class="cls-1" x="4" y="43" width="4" height="2"/><rect class="cls-1" x="16" y="31" width="8" height="2"/><rect class="cls-1" x="28" y="31" width="16" height="2"/><rect class="cls-1" x="16" y="25" width="4" height="2"/><rect class="cls-1" x="24" y="25" width="14" height="2"/><rect class="cls-5" x="16" y="19" width="8" height="2"/><rect class="cls-1" x="28" y="19" width="10" height="2"/><rect class="cls-1" x="42" y="19" width="6" height="2"/><rect class="cls-5" x="16" y="37" width="8" height="2"/><rect class="cls-1" x="28" y="37" width="10" height="2"/><rect class="cls-5" x="42" y="25" width="6" height="2"/><rect class="cls-1" x="16" y="43" width="4" height="2"/><rect class="cls-1" x="24" y="43" width="8" height="2"/><circle class="cls-6" cx="54" cy="3" r="1"/><circle class="cls-6" cx="50" cy="3" r="1"/><circle class="cls-6" cx="46" cy="3" r="1"/><circle class="cls-2" cx="18" cy="3" r="1"/><path class="cls-4" d="M7,13c-.54,0-.57-.15-2.71-2.29a1,1,0,0,1,0-1.42l2-2A1,1,0,1,1,7.71,8.71L6.41,10l1.3,1.29A1,1,0,0,1,7,13Z"/><path class="cls-4" d="M16,13a1,1,0,0,1-.71-1.71L16.59,10l-1.3-1.29a1,1,0,1,1,1.42-1.42l2,2a1,1,0,0,1,0,1.42C16.53,12.89,16.54,13,16,13Z"/><path class="cls-4" d="M11,14a1,1,0,0,1-1-1.16l1-6a1,1,0,0,1,2,.32l-1,6A1,1,0,0,1,11,14Z"/><path class="cls-4" d="M58,47.56V52a2,2,0,0,1-2,2H38.13l8.44-14.06a4,4,0,0,1,6.86,0Z"/><path class="cls-5" d="M62,64H38a2,2,0,0,1-1.71-3l12-20a2,2,0,0,1,3.42,0l12,20A2,2,0,0,1,62,64Z"/><path class="cls-3" d="M50,56a1.11,1.11,0,0,1-1.1-1l-.7-7A1.81,1.81,0,0,1,50,46h0a1.81,1.81,0,0,1,1.8,2l-.7,7A1.11,1.11,0,0,1,50,56Z"/><circle class="cls-3" cx="50" cy="60" r="2"/><path class="cls-5" d="M26,63a1,1,0,0,1-.71-.29l-4-4a1,1,0,0,1,1.42-1.42l4,4A1,1,0,0,1,26,63Z"/><path class="cls-5" d="M22,63a1,1,0,0,1-.71-1.71l4-4a1,1,0,0,1,1.42,1.42l-4,4A1,1,0,0,1,22,63Z"/><path class="cls-5" d="M60,34a1,1,0,0,1-.71-.29l-4-4a1,1,0,0,1,1.42-1.42l4,4A1,1,0,0,1,60,34Z"/><path class="cls-5" d="M56,34a1,1,0,0,1-.71-1.71l4-4a1,1,0,0,1,1.42,1.42l-4,4A1,1,0,0,1,56,34Z"/></g></svg>