<svg xmlns="http://www.w3.org/2000/svg" viewBox="0 0 64 64"><defs><style>.cls-1{fill:#fff;}.cls-2{fill:#50d9d7;}.cls-3{fill:#ffac00;}.cls-4{fill:#00bebd;}.cls-5{fill:#d9d9d9;}.cls-6{fill:#f3f3f3;}.cls-7{fill:#c8c8c8;}.cls-8{fill:#93e6e5;}</style></defs><title>Clipboard</title><g id="Clipboard"><rect class="cls-1" x="4" y="8" width="42" height="55" rx="4"/><path class="cls-2" d="M42,7H8a5,5,0,0,0-5,5V59a5,5,0,0,0,5,5H42a5,5,0,0,0,5-5V12A5,5,0,0,0,42,7Zm3,52a3,3,0,0,1-3,3H8a3,3,0,0,1-3-3V12A3,3,0,0,1,8,9H42a3,3,0,0,1,3,3Z"/><rect class="cls-3" x="14" y="4" width="22" height="9" rx="2"/><path class="cls-3" d="M29,4H27a2,2,0,0,0-4,0H21a4,4,0,0,1,8,0Z"/><path class="cls-3" d="M35,28h3A13,13,0,0,0,26,16.05v3A10,10,0,0,1,35,28Z"/><path class="cls-4" d="M25,39a10,10,0,0,1-1-19.95v-3A13,13,0,1,0,38,30H35A10,10,0,0,1,25,39Z"/><path class="cls-5" d="M21,33a1,1,0,0,1-.71-.29l-3-3a1,1,0,0,1,0-1.42l3-3a1,1,0,0,1,1.42,1.42L19.41,29l2.3,2.29A1,1,0,0,1,21,33Z"/><path class="cls-5" d="M29,33a1,1,0,0,1-.71-1.71L30.59,29l-2.3-2.29a1,1,0,0,1,1.42-1.42l3,3a1,1,0,0,1,0,1.42l-3,3A1,1,0,0,1,29,33Z"/><path class="cls-5" d="M24,35a1,1,0,0,1-1-1.2l2-10a1,1,0,1,1,2,.4l-2,10A1,1,0,0,1,24,35Z"/><rect class="cls-4" x="9" y="44" width="6" height="6" rx="1"/><rect class="cls-3" x="9" y="53" width="6" height="6" rx="1"/><rect class="cls-5" x="18" y="44" width="22" height="2"/><rect class="cls-5" x="18" y="48" width="14" height="2"/><rect class="cls-5" x="18" y="53" width="22" height="2"/><path class="cls-6" d="M45,44.13V59a3,3,0,0,1-3,3H36.41a16.07,16.07,0,0,1-4.18-5.85A3.06,3.06,0,0,1,32,55h8V53H32.62a15.9,15.9,0,0,1,6.64-7H40v-.39A15.8,15.8,0,0,1,45,44.13Z"/><path class="cls-7" d="M40,45.61V46h-.74C39.5,45.86,39.75,45.73,40,45.61Z"/><path class="cls-7" d="M32.62,53H40v2H32A4.27,4.27,0,0,1,32.62,53Z"/><path class="cls-4" d="M47,44V59a5,5,0,0,1-5,5H39.24a15.91,15.91,0,0,1-2.83-2H42a3,3,0,0,0,3-3V44.13A14.71,14.71,0,0,1,47,44Z"/><rect class="cls-5" x="18" y="57" width="14" height="2"/><ellipse class="cls-8" cx="48" cy="55" rx="12" ry="8"/><path class="cls-2" d="M35.08,55.38a.92.92,0,0,1,0-.76,14,14,0,0,1,25.84,0,.92.92,0,0,1,0,.76A14,14,0,0,1,35.08,55.38Zm2-.38a12,12,0,0,0,21.82,0A12,12,0,0,0,37.09,55Z"/><circle class="cls-2" cx="48" cy="55" r="5"/><circle class="cls-4" cx="48" cy="55" r="2"/><circle class="cls-1" cx="49" cy="53" r="1"/></g></svg>