<svg id="Coding_Laptop" data-name="Coding Laptop" xmlns="http://www.w3.org/2000/svg" viewBox="0 0 64 64"><defs><style>.cls-1{fill:#50d9d7;}.cls-2{fill:#00bebd;}.cls-3{fill:#93e6e5;}.cls-4{fill:#f3f3f3;}.cls-5{fill:#d9d9d9;}.cls-6{fill:#ffac00;}.cls-7{fill:#ea9706;}.cls-8{fill:#fff;}</style></defs><title>Coding Laptop</title><path class="cls-1" d="M62,19V58H2V19a3,3,0,0,1,3-3H59A3,3,0,0,1,62,19Z"/><path class="cls-2" d="M1,58H63a1,1,0,0,1,1,1v2a3,3,0,0,1-3,3H3a3,3,0,0,1-3-3V59A1,1,0,0,1,1,58Z"/><path class="cls-3" d="M60,19v4H20l-4-5H59A1,1,0,0,1,60,19Z"/><path class="cls-4" d="M60,23V56H4V19a1,1,0,0,1,1-1H19.08a4,4,0,0,1,3.12,1.5c1.55,1.94,1.64,2.06,1.75,2.17a4,4,0,0,0,3,1.33Z"/><path class="cls-4" d="M39,60H25a2,2,0,0,1-2-2H41A2,2,0,0,1,39,60Z"/><rect class="cls-5" x="14" y="27" width="2" height="26"/><rect class="cls-1" x="7" y="29" width="4" height="2"/><rect class="cls-1" x="7" y="33" width="4" height="2"/><rect class="cls-1" x="7" y="37" width="4" height="2"/><rect class="cls-1" x="7" y="41" width="4" height="2"/><rect class="cls-1" x="7" y="45" width="4" height="2"/><rect class="cls-1" x="7" y="49" width="4" height="2"/><rect class="cls-1" x="19" y="29" width="8" height="2"/><rect class="cls-1" x="31" y="29" width="16" height="2"/><rect class="cls-1" x="19" y="41" width="8" height="2"/><rect class="cls-1" x="31" y="41" width="16" height="2"/><rect class="cls-1" x="19" y="37" width="4" height="2"/><rect class="cls-1" x="27" y="37" width="14" height="2"/><rect class="cls-6" x="19" y="33" width="8" height="2"/><rect class="cls-1" x="31" y="33" width="10" height="2"/><rect class="cls-1" x="45" y="33" width="6" height="2"/><rect class="cls-6" x="19" y="45" width="8" height="2"/><rect class="cls-1" x="31" y="45" width="10" height="2"/><rect class="cls-1" x="45" y="45" width="6" height="2"/><rect class="cls-6" x="45" y="37" width="6" height="2"/><rect class="cls-1" x="19" y="49" width="4" height="2"/><rect class="cls-1" x="27" y="49" width="14" height="2"/><rect class="cls-6" x="45" y="49" width="6" height="2"/><path class="cls-2" d="M62,19v2.79a13.45,13.45,0,0,1-2,1.69V19a1,1,0,0,0-1-1H39.35a13.78,13.78,0,0,1-.77-2H59A3,3,0,0,1,62,19Z"/><path class="cls-5" d="M60,23v.48A14,14,0,0,1,43.35,23Z"/><path class="cls-1" d="M60,19v4H43.35a14,14,0,0,1-4-5H59A1,1,0,0,1,60,19Z"/><circle class="cls-7" cx="52" cy="12" r="12"/><circle class="cls-6" cx="52" cy="12" r="10"/><circle class="cls-5" cx="20" cy="21" r="1"/><path class="cls-8" d="M48,16a1,1,0,0,1-.71-.29l-3-3a1,1,0,0,1,0-1.42l3-3a1,1,0,0,1,1.42,1.42L46.41,12l2.3,2.29A1,1,0,0,1,48,16Z"/><path class="cls-8" d="M56,16a1,1,0,0,1-.71-1.71L57.59,12l-2.3-2.29a1,1,0,0,1,1.42-1.42l3,3a1,1,0,0,1,0,1.42l-3,3A1,1,0,0,1,56,16Z"/><path class="cls-8" d="M51,18a1,1,0,0,1-1-1.2l2-10a1,1,0,1,1,2,.4l-2,10A1,1,0,0,1,51,18Z"/></svg>