<svg xmlns="http://www.w3.org/2000/svg" viewBox="0 0 64 64"><defs><style>.cls-1{fill:#50d9d7;}.cls-2{fill:#93e6e5;}.cls-3{fill:#f3f3f3;}.cls-4{fill:#d9d9d9;}.cls-5{fill:#ffac00;}.cls-6{fill:#00bebd;}</style></defs><title>Coding View</title><g id="Coding_View" data-name="Coding View"><rect class="cls-1" x="6" width="52" height="43" rx="2"/><path class="cls-2" d="M45,52H15V0H34.53a4,4,0,0,1,3.58,2.21l.78,1.58A4,4,0,0,0,42.47,6H45Z"/><path class="cls-3" d="M58,6V52a2,2,0,0,1-2,2H2a2,2,0,0,1-2-2V2A2,2,0,0,1,2,0H17.53a4,4,0,0,1,3.58,2.21l.78,1.58A4,4,0,0,0,25.47,6Z"/><rect class="cls-4" x="11" y="17" width="2" height="30"/><rect class="cls-1" x="4" y="19" width="4" height="2"/><rect class="cls-1" x="4" y="25" width="4" height="2"/><rect class="cls-1" x="4" y="31" width="4" height="2"/><rect class="cls-1" x="4" y="37" width="4" height="2"/><rect class="cls-1" x="4" y="43" width="4" height="2"/><rect class="cls-1" x="16" y="31" width="8" height="2"/><rect class="cls-1" x="28" y="31" width="16" height="2"/><rect class="cls-1" x="16" y="25" width="4" height="2"/><rect class="cls-1" x="24" y="25" width="14" height="2"/><rect class="cls-5" x="16" y="19" width="8" height="2"/><rect class="cls-1" x="28" y="19" width="10" height="2"/><rect class="cls-1" x="42" y="19" width="6" height="2"/><rect class="cls-5" x="16" y="37" width="8" height="2"/><rect class="cls-1" x="28" y="37" width="10" height="2"/><rect class="cls-5" x="42" y="25" width="6" height="2"/><rect class="cls-1" x="16" y="43" width="4" height="2"/><rect class="cls-1" x="24" y="43" width="8" height="2"/><circle class="cls-6" cx="54" cy="3" r="1"/><circle class="cls-6" cx="50" cy="3" r="1"/><circle class="cls-6" cx="46" cy="3" r="1"/><circle class="cls-2" cx="18" cy="3" r="1"/><path class="cls-4" d="M58,42.47V52a2,2,0,0,1-2,2H32.17a3,3,0,0,1,0-2A17.8,17.8,0,0,1,58,42.47Z"/><ellipse class="cls-2" cx="49" cy="53" rx="14" ry="10"/><circle class="cls-3" cx="49" cy="53" r="6"/><circle class="cls-1" cx="49" cy="53" r="7"/><circle class="cls-6" cx="49" cy="53" r="3"/><path class="cls-1" d="M49,64A15.9,15.9,0,0,1,34.06,53.33a.94.94,0,0,1,0-.66,15.79,15.79,0,0,1,29.88,0,.94.94,0,0,1,0,.66A15.9,15.9,0,0,1,49,64ZM36.06,53a13.8,13.8,0,0,0,25.88,0A13.8,13.8,0,0,0,36.06,53Z"/><circle class="cls-3" cx="51" cy="51" r="2"/><path class="cls-4" d="M7,13c-.54,0-.57-.15-2.71-2.29a1,1,0,0,1,0-1.42l2-2A1,1,0,1,1,7.71,8.71L6.41,10l1.3,1.29A1,1,0,0,1,7,13Z"/><path class="cls-4" d="M16,13a1,1,0,0,1-.71-1.71L16.59,10l-1.3-1.29a1,1,0,1,1,1.42-1.42l2,2a1,1,0,0,1,0,1.42C16.53,12.89,16.54,13,16,13Z"/><path class="cls-4" d="M11,14a1,1,0,0,1-1-1.16l1-6a1,1,0,0,1,2,.32l-1,6A1,1,0,0,1,11,14Z"/></g></svg>