<svg xmlns="http://www.w3.org/2000/svg" viewBox="0 0 64 64"><defs><style>.cls-1{fill:#d9d9d9;}.cls-2{fill:#00bebd;}.cls-3{fill:#f3f3f3;}.cls-4{fill:#c8c8c8;}.cls-5{fill:#ffac00;}.cls-6{fill:#ea9706;}</style></defs><title>Coding hand</title><g id="Coding_hand" data-name="Coding hand"><path class="cls-1" d="M63.71,43.29a10.94,10.94,0,0,0-10.44-2.83l-13,3.4h0c.77-1.35.41-1.86.41-2a2.08,2.08,0,0,0-.79-1.15L32.22,35.1A11,11,0,0,0,25.75,33H19.87A11,11,0,0,0,14,34.67L8.47,38.15A1,1,0,0,0,8,39V59a1,1,0,0,0,1,1c7.46,0,9.24-.15,12.36.57,9.31,2.15,10,2.43,12.21,2.43a14.62,14.62,0,0,0,8.61-2.78l21.4-15.41A1,1,0,0,0,63.71,43.29Z"/><rect class="cls-2" y="34" width="10" height="30" rx="3"/><circle class="cls-3" cx="6" cy="60" r="2"/><path class="cls-4" d="M43,43.14a7,7,0,0,1-4.28,4.07,7,7,0,0,1-5.7-.56L31.85,46a1,1,0,0,1,1-1.74l1.16.66a5,5,0,0,0,6.25-1Z"/><path class="cls-5" d="M26.26,8.28a6.29,6.29,0,0,0-3.1,4.2l-.14.67a1,1,0,0,1-2,0l-.14-.67a6.29,6.29,0,0,0-3.1-4.2,1.48,1.48,0,0,1,0-2.56,6.29,6.29,0,0,0,3.1-4.2L21,.85a1,1,0,0,1,2,0l.14.67a6.29,6.29,0,0,0,3.1,4.2A1.48,1.48,0,0,1,26.26,8.28Z"/><path class="cls-5" d="M63,18.11V15.89A1.89,1.89,0,0,0,61.11,14a1.88,1.88,0,0,1-1.79-1.29,13.58,13.58,0,0,0-.86-2.08,1.89,1.89,0,0,1,.34-2.19,1.9,1.9,0,0,0,0-2.68L57.24,4.2a1.9,1.9,0,0,0-2.68,0,1.87,1.87,0,0,1-2.19.34,13.58,13.58,0,0,0-2.08-.86A1.89,1.89,0,0,1,49,1.89,1.89,1.89,0,0,0,47.11,0H44.89A1.89,1.89,0,0,0,43,1.89a1.88,1.88,0,0,1-1.29,1.79,13.58,13.58,0,0,0-2.08.86,1.89,1.89,0,0,1-2.19-.34,1.9,1.9,0,0,0-2.68,0L33.2,5.76a1.9,1.9,0,0,0,0,2.68,1.87,1.87,0,0,1,.34,2.19,13.58,13.58,0,0,0-.86,2.08A1.89,1.89,0,0,1,30.89,14,1.89,1.89,0,0,0,29,15.89v2.22A1.89,1.89,0,0,0,30.89,20a1.88,1.88,0,0,1,1.79,1.29,13.58,13.58,0,0,0,.86,2.08,1.89,1.89,0,0,1-.34,2.19,1.9,1.9,0,0,0,0,2.68l1.56,1.56a1.9,1.9,0,0,0,2.68,0,1.87,1.87,0,0,1,2.19-.34,13.58,13.58,0,0,0,2.08.86A1.89,1.89,0,0,1,43,32.11,1.89,1.89,0,0,0,44.89,34h2.22A1.89,1.89,0,0,0,49,32.11a1.88,1.88,0,0,1,1.29-1.79,13.58,13.58,0,0,0,2.08-.86,1.89,1.89,0,0,1,2.19.34,1.9,1.9,0,0,0,2.68,0l1.56-1.56a1.9,1.9,0,0,0,0-2.68,1.87,1.87,0,0,1-.34-2.19,13.58,13.58,0,0,0,.86-2.08A1.89,1.89,0,0,1,61.11,20,1.89,1.89,0,0,0,63,18.11Z"/><circle class="cls-6" cx="46" cy="17" r="10"/><path class="cls-3" d="M42,21a1,1,0,0,1-.71-.29l-3-3a1,1,0,0,1,0-1.42l3-3a1,1,0,0,1,1.42,1.42L40.41,17l2.3,2.29A1,1,0,0,1,42,21Z"/><path class="cls-3" d="M50,21a1,1,0,0,1-.71-1.71L51.59,17l-2.3-2.29a1,1,0,0,1,1.42-1.42l3,3a1,1,0,0,1,0,1.42l-3,3A1,1,0,0,1,50,21Z"/><path class="cls-3" d="M45,22a1,1,0,0,1-1-1.24l2-8a1,1,0,0,1,1.94.48l-2,8A1,1,0,0,1,45,22Z"/></g></svg>