<svg xmlns="http://www.w3.org/2000/svg" viewBox="0 0 64 64"><defs><style>.cls-1{fill:#ffac00;}.cls-2{fill:#ea9706;}.cls-3{fill:#50d9d7;}.cls-4{fill:#00bebd;}.cls-5{fill:#f3f3f3;}</style></defs><title>Coding Medal</title><g id="Coding_Medal" data-name="Coding Medal"><rect class="cls-1" x="25" y="26" width="14" height="7"/><circle class="cls-2" cx="32" cy="46" r="18"/><circle class="cls-1" cx="32" cy="46" r="15"/><rect class="cls-2" x="12" y="22" width="40" height="4" rx="1"/><path class="cls-3" d="M18,0H46a2,2,0,0,1,2,2V22a0,0,0,0,1,0,0H16a0,0,0,0,1,0,0V2A2,2,0,0,1,18,0Z"/><rect class="cls-4" x="24" width="16" height="22"/><path class="cls-5" d="M26,51a1,1,0,0,1-.71-.29l-4-4a1,1,0,0,1,0-1.42l4-4a1,1,0,0,1,1.42,1.42L23.41,46l3.3,3.29A1,1,0,0,1,26,51Z"/><path class="cls-5" d="M38,51a1,1,0,0,1-.71-1.71L40.59,46l-3.3-3.29a1,1,0,0,1,1.42-1.42l4,4a1,1,0,0,1,0,1.42l-4,4A1,1,0,0,1,38,51Z"/><path class="cls-5" d="M30,54a1,1,0,0,1-1-1.27l4-14a1,1,0,0,1,1.92.54l-4,14A1,1,0,0,1,30,54Z"/></g></svg>