<svg xmlns="http://www.w3.org/2000/svg" viewBox="0 0 64 64"><defs><style>.cls-1{fill:#50d9d7;}.cls-2{fill:#00bebd;}.cls-3{fill:#93e6e5;}.cls-4{fill:#f3f3f3;}.cls-5{fill:#d9d9d9;}.cls-6{fill:#ffac00;}</style></defs><title>Computer Programing</title><g id="Computer_Programing" data-name="Computer Programing"><rect class="cls-1" x="1" y="6" width="62" height="48" rx="4"/><path class="cls-2" d="M44,64H20a13.7,13.7,0,0,0,4-10H40A13.68,13.68,0,0,0,44,64Z"/><path class="cls-1" d="M45,64H19a1,1,0,0,1,0-2H45a1,1,0,0,1,0,2Z"/><rect class="cls-3" x="4" y="9" width="56" height="40" rx="1"/><path class="cls-4" d="M60,14V48a1,1,0,0,1-1,1H5a1,1,0,0,1-1-1V10A1,1,0,0,1,5,9C21.39,9,20.33,9,21,9.11a4,4,0,0,1,2.2,1.39l1.6,2A4,4,0,0,0,27.92,14Z"/><path class="cls-1" d="M33,4H56V2a2,2,0,0,0-2-2H33Z"/><polygon class="cls-3" points="22 4 41 4 38 0 22 0 22 4"/><rect class="cls-2" x="6" y="6" width="52" height="3"/><path class="cls-1" d="M58,9v5H27.92a4,4,0,0,1-3.12-1.5l-1.6-2A4,4,0,0,0,20.08,9Z"/><path class="cls-5" d="M58,14V49H6V9H20.08a4,4,0,0,1,3.12,1.5l1.6,2A4,4,0,0,0,27.92,14Z"/><path class="cls-4" d="M56,4V49H8V2a2,2,0,0,1,2-2H24a2,2,0,0,1,1.6.8l1.8,2.4A2,2,0,0,0,29,4Z"/><path class="cls-5" d="M40,44c-.54,0-.57-.15-2.71-2.29a1,1,0,0,1,0-1.42l2-2a1,1,0,0,1,1.42,1.42L39.41,41l1.3,1.29A1,1,0,0,1,40,44Z"/><path class="cls-5" d="M49,44a1,1,0,0,1-.71-1.71L49.59,41l-1.3-1.29a1,1,0,0,1,1.42-1.42l2,2a1,1,0,0,1,0,1.42C49.53,43.89,49.54,44,49,44Z"/><path class="cls-5" d="M44,45a1,1,0,0,1-1-1.16l1-6a1,1,0,0,1,2,.32l-1,6A1,1,0,0,1,44,45Z"/><rect class="cls-5" x="18" y="9" width="2" height="30"/><rect class="cls-1" x="11" y="11" width="4" height="2"/><rect class="cls-1" x="11" y="17" width="4" height="2"/><rect class="cls-1" x="11" y="23" width="4" height="2"/><rect class="cls-1" x="11" y="29" width="4" height="2"/><rect class="cls-1" x="11" y="35" width="4" height="2"/><rect class="cls-1" x="23" y="23" width="8" height="2"/><rect class="cls-1" x="35" y="23" width="16" height="2"/><rect class="cls-1" x="23" y="17" width="4" height="2"/><rect class="cls-1" x="31" y="17" width="14" height="2"/><rect class="cls-6" x="23" y="11" width="8" height="2"/><rect class="cls-1" x="35" y="11" width="10" height="2"/><rect class="cls-6" x="23" y="29" width="8" height="2"/><rect class="cls-1" x="35" y="29" width="10" height="2"/><rect class="cls-1" x="23" y="35" width="4" height="2"/><circle class="cls-3" cx="24" cy="3" r="1"/></g></svg>