<svg xmlns="http://www.w3.org/2000/svg" viewBox="0 0 64 64"><defs><style>.cls-1{fill:#ea9706;}.cls-2{fill:#ffac00;}.cls-3{fill:#f3f3f3;}.cls-4{fill:#d9d9d9;}.cls-5{fill:#50d9d7;}.cls-6{fill:#00bebd;}</style></defs><title>CSS</title><g id="CSS"><path class="cls-1" d="M35,18.11V15.89A1.89,1.89,0,0,0,33.11,14a1.88,1.88,0,0,1-1.79-1.29,13.58,13.58,0,0,0-.86-2.08,1.89,1.89,0,0,1,.34-2.19,1.9,1.9,0,0,0,0-2.68L29.24,4.2a1.9,1.9,0,0,0-2.68,0,1.87,1.87,0,0,1-2.19.34,13.58,13.58,0,0,0-2.08-.86A1.89,1.89,0,0,1,21,1.89,1.89,1.89,0,0,0,19.11,0H16.89A1.89,1.89,0,0,0,15,1.89a1.88,1.88,0,0,1-1.29,1.79,13.58,13.58,0,0,0-2.08.86A1.89,1.89,0,0,1,9.44,4.2a1.9,1.9,0,0,0-2.68,0L5.2,5.76a1.9,1.9,0,0,0,0,2.68,1.87,1.87,0,0,1,.34,2.19,13.58,13.58,0,0,0-.86,2.08A1.89,1.89,0,0,1,2.89,14,1.89,1.89,0,0,0,1,15.89v2.22A1.89,1.89,0,0,0,2.89,20a1.88,1.88,0,0,1,1.79,1.29,13.58,13.58,0,0,0,.86,2.08,1.89,1.89,0,0,1-.34,2.19,1.9,1.9,0,0,0,0,2.68L6.76,29.8a1.9,1.9,0,0,0,2.68,0,1.87,1.87,0,0,1,2.19-.34,13.58,13.58,0,0,0,2.08.86A1.89,1.89,0,0,1,15,32.11,1.89,1.89,0,0,0,16.89,34h2.22A1.89,1.89,0,0,0,21,32.11a1.88,1.88,0,0,1,1.29-1.79,13.58,13.58,0,0,0,2.08-.86,1.89,1.89,0,0,1,2.19.34,1.9,1.9,0,0,0,2.68,0l1.56-1.56a1.9,1.9,0,0,0,0-2.68,1.87,1.87,0,0,1-.34-2.19,13.58,13.58,0,0,0,.86-2.08A1.89,1.89,0,0,1,33.11,20,1.89,1.89,0,0,0,35,18.11Z"/><path class="cls-2" d="M27,17a9,9,0,1,1-9-9A9,9,0,0,1,27,17Z"/><path class="cls-1" d="M27,17a9,9,0,0,1-14,7.48V14a4,4,0,0,1,4-4h6.64A9,9,0,0,1,27,17Z"/><path class="cls-3" d="M59,22V62a2,2,0,0,1-2,2H17a2,2,0,0,1-2-2V14a2,2,0,0,1,2-2H49Z"/><path class="cls-4" d="M59,22H51a2,2,0,0,1-2-2V12Z"/><rect class="cls-4" x="15" y="40" width="44" height="20"/><path class="cls-5" d="M13,42H61a2,2,0,0,1,2,2V56a2,2,0,0,1-2,2H11a0,0,0,0,1,0,0V44A2,2,0,0,1,13,42Z"/><polygon class="cls-6" points="11 58 15 62 15 58 11 58"/><path class="cls-6" d="M29,55H27a5,5,0,0,1,0-10h2a1,1,0,0,1,0,2H27a3,3,0,0,0,0,6h2a1,1,0,0,1,0,2Z"/><path class="cls-6" d="M38,55H34a1,1,0,0,1,0-2h4a1,1,0,0,0,0-2H36a3,3,0,0,1,0-6h4a1,1,0,0,1,0,2H36a1,1,0,0,0,0,2h2a3,3,0,0,1,0,6Z"/><path class="cls-6" d="M48,55H45a1,1,0,0,1,0-2h3a1,1,0,0,0,0-2H47a3,3,0,0,1,0-6h3a1,1,0,0,1,0,2H47a1,1,0,0,0,0,2h1a3,3,0,0,1,0,6Z"/><rect class="cls-4" x="25" y="20" width="2" height="18"/><rect class="cls-5" x="18" y="20" width="4" height="2"/><rect class="cls-5" x="18" y="24" width="4" height="2"/><rect class="cls-5" x="18" y="28" width="4" height="2"/><rect class="cls-5" x="18" y="32" width="4" height="2"/><rect class="cls-5" x="18" y="36" width="4" height="2"/><rect class="cls-5" x="30" y="20" width="4" height="2"/><rect class="cls-2" x="37" y="20" width="10" height="2"/><rect class="cls-2" x="30" y="28" width="4" height="2"/><rect class="cls-5" x="37" y="28" width="10" height="2"/><rect class="cls-5" x="30" y="36" width="4" height="2"/><rect class="cls-2" x="37" y="36" width="10" height="2"/><rect class="cls-5" x="30" y="24" width="4" height="2"/><rect class="cls-5" x="37" y="24" width="6" height="2"/><rect class="cls-5" x="30" y="32" width="4" height="2"/><rect class="cls-5" x="37" y="32" width="8" height="2"/></g></svg>