<svg xmlns="http://www.w3.org/2000/svg" viewBox="0 0 64 64"><defs><style>.cls-1{fill:#d9d9d9;}.cls-2{fill:#50d9d7;}.cls-3{fill:#00bebd;}.cls-4{fill:#00aaa8;}.cls-5{fill:#ea9706;}.cls-6{fill:#ffac00;}.cls-7{fill:#fff;}</style></defs><title>Database</title><g id="Database"><rect class="cls-1" x="6" y="60" width="23" height="2"/><rect class="cls-1" x="29" y="60" width="23" height="2"/><rect class="cls-1" x="28" y="45" width="2" height="17"/><path class="cls-2" d="M46,40c0,1.63-2.67,3.08-6.79,4a52.75,52.75,0,0,1-20.42,0C14.67,43.08,12,41.63,12,40c0-2.76,7.61-5,17-5S46,37.24,46,40Z"/><path class="cls-3" d="M46,40v8c0,2.76-7.61,5-17,5s-17-2.24-17-5V40c0,1.63,2.67,3.08,6.79,4a52.75,52.75,0,0,0,20.42,0C43.33,43.08,46,41.63,46,40Z"/><path class="cls-2" d="M22.89,49.68A1,1,0,0,1,22,48.57a1,1,0,0,1,1.1-.88,56.56,56.56,0,0,0,11.78,0,1,1,0,0,1,1.1.88,1,1,0,0,1-.88,1.11A58,58,0,0,1,22.89,49.68Z"/><path class="cls-2" d="M46,28c0,1.63-2.67,3.08-6.79,4a52.75,52.75,0,0,1-20.42,0C14.67,31.08,12,29.63,12,28a2.62,2.62,0,0,1,1.42-2c5.92-4,25.22-4,31.16,0A2.7,2.7,0,0,1,46,28Z"/><path class="cls-3" d="M46,28v8c0,2.76-7.61,5-17,5s-17-2.24-17-5V28c0,1.63,2.67,3.08,6.79,4a52.75,52.75,0,0,0,20.42,0C43.33,31.08,46,29.63,46,28Z"/><path class="cls-2" d="M22.89,37.68A1,1,0,0,1,22,36.57a1,1,0,0,1,1.1-.88,56.56,56.56,0,0,0,11.78,0,1,1,0,0,1,1.1.88,1,1,0,0,1-.88,1.11A58,58,0,0,1,22.89,37.68Z"/><path class="cls-2" d="M46,16c0,1.63-2.67,3.08-6.79,4C28.52,22.41,12,20.23,12,16c0-2.76,7.61-5,17-5,1.42,0,2.8.05,4.12.15C40.52,11.69,46,13.66,46,16Z"/><path class="cls-3" d="M46,16v8a2.62,2.62,0,0,1-1.42,2c-5.79,3.93-25.17,4-31.16,0A2.62,2.62,0,0,1,12,24V16c0,1.63,2.67,3.08,6.79,4C29.45,22.37,46,20.27,46,16Z"/><path class="cls-2" d="M22.89,25.68A1,1,0,0,1,22,24.57a1,1,0,0,1,1.1-.88,56.56,56.56,0,0,0,11.78,0,1,1,0,0,1,1.1.88,1,1,0,0,1-.88,1.11A58,58,0,0,1,22.89,25.68Z"/><path class="cls-3" d="M46,27.86A14.11,14.11,0,0,1,42.61,27a9.76,9.76,0,0,0,2-1A2.74,2.74,0,0,1,46,27.86Z"/><path class="cls-4" d="M46,16v8c0,1.43-2,2.47-3.39,3a15.1,15.1,0,0,1-7.5-6.32,39,39,0,0,0,4.1-.67C43.33,19.08,46,17.63,46,16Z"/><path class="cls-3" d="M46,16c0,1.63-2.67,3.08-6.79,4a39,39,0,0,1-4.1.67,14.89,14.89,0,0,1-2-9.52C40.52,11.69,46,13.66,46,16Z"/><circle class="cls-5" cx="48" cy="13" r="13"/><circle class="cls-6" cx="48" cy="13" r="10"/><path class="cls-7" d="M44,17a1,1,0,0,1-.71-.29l-3-3a1,1,0,0,1,0-1.42l3-3a1,1,0,0,1,1.42,1.42L42.41,13l2.3,2.29A1,1,0,0,1,44,17Z"/><path class="cls-7" d="M52,17a1,1,0,0,1-.71-1.71L53.59,13l-2.3-2.29a1,1,0,0,1,1.42-1.42l3,3a1,1,0,0,1,0,1.42l-3,3A1,1,0,0,1,52,17Z"/><path class="cls-7" d="M47,19a1,1,0,0,1-1-1.2l2-10a1,1,0,1,1,2,.4l-2,10A1,1,0,0,1,47,19Z"/><rect class="cls-6" x="24" y="58" width="10" height="6" rx="2"/><circle class="cls-6" cx="6" cy="61" r="3"/><circle class="cls-6" cx="52" cy="61" r="3"/></g></svg>