<svg xmlns="http://www.w3.org/2000/svg" viewBox="0 0 64 64"><defs><style>.cls-1{fill:#00bebd;}.cls-2{fill:#ffac00;}.cls-3{fill:#00aaa8;}.cls-4{fill:#f3f3f3;}.cls-5{fill:#50d9d7;}.cls-6{fill:#d9d9d9;}.cls-7{fill:#fff;}</style></defs><title>Disc</title><g id="Disc"><path class="cls-1" d="M44,6V53a2,2,0,0,1-2,2H2a2,2,0,0,1-2-2V6Z"/><path class="cls-2" d="M44,2c0,5.76.11,5.81-.34,6.48l-3.09,4.63a2,2,0,0,1-1.66.89H5.07a2,2,0,0,1-1.66-.89C.17,8.25,0,8.21,0,7.39V2A2,2,0,0,1,2,0H42A2,2,0,0,1,44,2Z"/><path class="cls-3" d="M26.54,55H42a2,2,0,0,0,2-2V24A21,21,0,0,0,26.54,55Z"/><path class="cls-4" d="M45,26A19,19,0,1,0,64,45,19,19,0,0,0,45,26Zm0,22a3,3,0,1,1,3-3A3,3,0,0,1,45,48Z"/><path class="cls-5" d="M45,39a6,6,0,1,0,6,6A6,6,0,0,0,45,39Zm0,9a3,3,0,1,1,3-3A3,3,0,0,1,45,48Z"/><path class="cls-6" d="M59,46a1,1,0,0,1-1-1A13,13,0,0,0,45,32a1,1,0,0,1,0-2A15,15,0,0,1,60,45,1,1,0,0,1,59,46Z"/><path class="cls-6" d="M45,60A15,15,0,0,1,30,45a1,1,0,0,1,2,0A13,13,0,0,0,45,58a1,1,0,0,1,0,2Z"/><path class="cls-7" d="M8,26a1,1,0,0,1-.71-.29l-3-3a1,1,0,0,1,0-1.42l3-3a1,1,0,0,1,1.42,1.42L6.41,22l2.3,2.29A1,1,0,0,1,8,26Z"/><path class="cls-7" d="M17,26a1,1,0,0,1-.71-1.71L18.59,22l-2.3-2.29a1,1,0,0,1,1.42-1.42l3,3a1,1,0,0,1,0,1.42l-3,3A1,1,0,0,1,17,26Z"/><path class="cls-7" d="M12,27a1,1,0,0,1-1-1.12l1-8a1,1,0,1,1,2,.24l-1,8A1,1,0,0,1,12,27Z"/><rect class="cls-7" x="4" y="31" width="4" height="2"/><rect class="cls-7" x="10" y="31" width="11" height="2"/><rect class="cls-7" x="4" y="35" width="4" height="2"/><rect class="cls-7" x="10" y="35" width="11" height="2"/><rect class="cls-7" x="4" y="39" width="4" height="2"/><rect class="cls-7" x="10" y="39" width="11" height="2"/></g></svg>