<svg xmlns="http://www.w3.org/2000/svg" viewBox="0 0 64 64"><defs><style>.cls-1{fill:#50d9d7;}.cls-2{fill:#00bebd;}.cls-3{fill:#93e6e5;}.cls-4{fill:#fff;}.cls-5{fill:#ffac00;}.cls-6{fill:#ea9706;}.cls-7{fill:#d9d9d9;}.cls-8{fill:#f3f3f3;}.cls-9{fill:#c8c8c8;}</style></defs><title>Ecommerce</title><g id="Ecommerce"><rect class="cls-1" x="1" y="6" width="62" height="48" rx="4"/><path class="cls-2" d="M44,64H20a13.7,13.7,0,0,0,4-10H40A13.68,13.68,0,0,0,44,64Z"/><path class="cls-1" d="M45,64H19a1,1,0,0,1,0-2H45a1,1,0,0,1,0,2Z"/><rect class="cls-3" x="4" y="9" width="56" height="40" rx="1"/><path class="cls-4" d="M60,14V48a1,1,0,0,1-1,1H5a1,1,0,0,1-1-1V10A1,1,0,0,1,5,9C21.39,9,20.33,9,21,9.11a4,4,0,0,1,2.2,1.39l1.6,2A4,4,0,0,0,27.92,14Z"/><path class="cls-5" d="M20,19A11,11,0,1,0,31,30,11,11,0,0,0,20,19Zm0,13a2,2,0,1,1,2-2A2,2,0,0,1,20,32Z"/><path class="cls-6" d="M20,26a4,4,0,1,0,4,4A4,4,0,0,0,20,26Zm0,6a2,2,0,1,1,2-2A2,2,0,0,1,20,32Z"/><path class="cls-6" d="M28,31a1,1,0,0,1-1-1,7,7,0,0,0-7-7,1,1,0,0,1,0-2,9,9,0,0,1,9,9A1,1,0,0,1,28,31Z"/><path class="cls-6" d="M20,39a9,9,0,0,1-9-9,1,1,0,0,1,2,0,7,7,0,0,0,7,7,1,1,0,0,1,0,2Z"/><rect class="cls-7" x="35" y="22" width="17" height="2"/><rect class="cls-7" x="35" y="26" width="20" height="2"/><rect class="cls-7" x="35" y="30" width="12" height="2"/><rect class="cls-5" x="35" y="35" width="14" height="6" rx="2"/><path class="cls-2" d="M63,10V20.65a13.39,13.39,0,0,1-3,2.82V10a1,1,0,0,0-1-1H38.33a13.44,13.44,0,0,1,1-3H59A4,4,0,0,1,63,10Z"/><path class="cls-1" d="M60,10v4H38.14a14.07,14.07,0,0,1,.19-5H59A1,1,0,0,1,60,10Z"/><path class="cls-8" d="M60,14v9.47A13.93,13.93,0,0,1,44.8,24H52V22H42.22a14,14,0,0,1-4.08-8Z"/><path class="cls-9" d="M52,22v2H44.8a13.2,13.2,0,0,1-2.58-2Z"/><circle class="cls-3" cx="52" cy="12" r="12"/><path class="cls-2" d="M56.9,19H47.1a1,1,0,0,1-1-1.1l.8-8a1,1,0,0,1,1-.9h8.2a1,1,0,0,1,1,.9l.8,8A1,1,0,0,1,56.9,19Z"/><path class="cls-1" d="M54,11a1,1,0,0,1-1-1V8a1,1,0,0,0-2,0v2a1,1,0,0,1-2,0V8a3,3,0,0,1,6,0v2A1,1,0,0,1,54,11Z"/><circle class="cls-7" cx="21" cy="12" r="1"/><circle class="cls-5" cx="2" cy="3" r="1"/><circle class="cls-5" cx="6" cy="3" r="1"/><circle class="cls-5" cx="10" cy="3" r="1"/></g></svg>