<svg xmlns="http://www.w3.org/2000/svg" viewBox="0 0 64 64"><defs><style>.cls-1{fill:#50d9d7;}.cls-2{fill:#00bebd;}.cls-3{fill:#93e6e5;}.cls-4{fill:#f3f3f3;}.cls-5{fill:#d9d9d9;}.cls-6{fill:#ffac00;}</style></defs><title>Flowchart</title><g id="Flowchart"><path class="cls-1" d="M62,19V58H2V19a3,3,0,0,1,3-3H59A3,3,0,0,1,62,19Z"/><path class="cls-2" d="M1,58H63a1,1,0,0,1,1,1v2a3,3,0,0,1-3,3H3a3,3,0,0,1-3-3V59a1,1,0,0,1,1-1Z"/><path class="cls-3" d="M60,19v4H20l-4-5H59A1,1,0,0,1,60,19Z"/><path class="cls-4" d="M60,23V56H4V19a1,1,0,0,1,1-1H19.08a4,4,0,0,1,3.12,1.5c1.55,1.94,1.64,2.06,1.75,2.17a4,4,0,0,0,3,1.33Z"/><path class="cls-4" d="M39,60H25a2,2,0,0,1-2-2H41A2,2,0,0,1,39,60Z"/><path class="cls-1" d="M33,14H56V12a2,2,0,0,0-2-2H33Z"/><polygon class="cls-3" points="22 14 41 14 38 10 22 10 22 14"/><rect class="cls-2" x="6" y="16" width="52" height="2"/><path class="cls-1" d="M58,18v5H26.92a4,4,0,0,1-3.12-1.5l-1.6-2A4,4,0,0,0,19.08,18Z"/><path class="cls-5" d="M58,23V56H6V18H19.08a4,4,0,0,1,3.12,1.5l1.6,2A4,4,0,0,0,26.92,23Z"/><path class="cls-4" d="M56,14V56H8V12a2,2,0,0,1,2-2H24a2,2,0,0,1,1.6.8l1.8,2.4A2,2,0,0,0,29,14Z"/><circle class="cls-6" cx="11" cy="7" r="1"/><circle class="cls-6" cx="15" cy="7" r="1"/><circle class="cls-6" cx="19" cy="7" r="1"/><rect class="cls-2" x="31" y="24" width="2" height="26"/><rect class="cls-6" x="25" y="33" width="14" height="8" rx="2"/><circle class="cls-1" cx="32" cy="23" r="6"/><ellipse class="cls-1" cx="32" cy="49" rx="7" ry="4"/><rect class="cls-5" x="12" y="19" width="12" height="2"/><rect class="cls-5" x="12" y="23" width="8" height="2"/><rect class="cls-5" x="42" y="44" width="10" height="2"/><rect class="cls-5" x="42" y="48" width="6" height="2"/><path class="cls-6" d="M44,38H43a1,1,0,0,1,0-2h1a1,1,0,0,0,1-1V25a1,1,0,0,0-1-1H43a1,1,0,0,1,0-2h1a3,3,0,0,1,3,3V35A3,3,0,0,1,44,38Z"/><path class="cls-6" d="M21,50H20a3,3,0,0,1-3-3V39a3,3,0,0,1,3-3h1a1,1,0,0,1,0,2H20a1,1,0,0,0-1,1v8a1,1,0,0,0,1,1h1a1,1,0,0,1,0,2Z"/></g></svg>