<svg xmlns="http://www.w3.org/2000/svg" viewBox="0 0 64 64"><defs><style>.cls-1{fill:#ea9706;}.cls-2{fill:#f3f3f3;}.cls-3{fill:#d9d9d9;}.cls-4{fill:#50d9d7;}.cls-5{fill:#ffac00;}.cls-6{fill:#00bebd;}.cls-7{fill:#fff;}</style></defs><title>Folder</title><g id="Folder"><path class="cls-1" d="M60,58H4a4,4,0,0,1-4-4V11A2,2,0,0,1,2,9H22.87a2,2,0,0,1,1.71,1L26.42,13a2,2,0,0,0,1.71,1H58a2,2,0,0,1,2,2Z"/><path class="cls-2" d="M56,2V56H12V2a2,2,0,0,1,2-2H54A2,2,0,0,1,56,2Z"/><rect class="cls-3" x="22" y="10" width="2" height="18"/><rect class="cls-4" x="15" y="12" width="4" height="2"/><rect class="cls-4" x="15" y="18" width="4" height="2"/><rect class="cls-4" x="15" y="24" width="4" height="2"/><rect class="cls-4" x="15" y="34" width="4" height="2"/><rect class="cls-5" x="27" y="24" width="8" height="2"/><rect class="cls-4" x="39" y="24" width="10" height="2"/><rect class="cls-4" x="27" y="18" width="4" height="2"/><rect class="cls-4" x="35" y="18" width="14" height="2"/><rect class="cls-5" x="27" y="12" width="8" height="2"/><rect class="cls-4" x="39" y="12" width="10" height="2"/><rect class="cls-4" x="27" y="34" width="4" height="2"/><rect class="cls-4" x="35" y="34" width="8" height="2"/><rect class="cls-3" x="12" y="30" width="44" height="26"/><path class="cls-5" d="M64,34V54a4,4,0,0,1-4,4H4a4,4,0,0,0,4-4V34a2,2,0,0,1,2-2H62A2,2,0,0,1,64,34Z"/><circle class="cls-6" cx="32" cy="51" r="13"/><circle class="cls-4" cx="32" cy="51" r="10"/><path class="cls-7" d="M28,55a1,1,0,0,1-.71-.29l-3-3a1,1,0,0,1,0-1.42l3-3a1,1,0,0,1,1.42,1.42L26.41,51l2.3,2.29A1,1,0,0,1,28,55Z"/><path class="cls-7" d="M36,55a1,1,0,0,1-.71-1.71L37.59,51l-2.3-2.29a1,1,0,0,1,1.42-1.42l3,3a1,1,0,0,1,0,1.42l-3,3A1,1,0,0,1,36,55Z"/><path class="cls-7" d="M31,57a1,1,0,0,1-1-1.2l2-10a1,1,0,1,1,2,.4l-2,10A1,1,0,0,1,31,57Z"/><path class="cls-4" d="M14,0H54a2,2,0,0,1,2,2V6a0,0,0,0,1,0,0H12a0,0,0,0,1,0,0V2A2,2,0,0,1,14,0Z"/><circle class="cls-6" cx="53" cy="3" r="1"/><circle class="cls-6" cx="49" cy="3" r="1"/><circle class="cls-6" cx="45" cy="3" r="1"/></g></svg>