<svg xmlns="http://www.w3.org/2000/svg" viewBox="0 0 64 64"><defs><style>.cls-1{fill:#ffac00;}.cls-2{fill:#00bebd;}.cls-3{fill:#fff;}.cls-4{fill:#d9d9d9;}</style></defs><title>Gears</title><g id="Gears"><path class="cls-1" d="M50,28V22a2,2,0,0,0-2-2H45.83A2,2,0,0,1,44,18.66a18.79,18.79,0,0,0-1.07-2.57,2,2,0,0,1,.39-2.28l1.53-1.54a2,2,0,0,0,0-2.83L40.56,5.2a2,2,0,0,0-2.83,0L36.19,6.73a2,2,0,0,1-2.28.39,18.79,18.79,0,0,0-2.57-1.07A2,2,0,0,1,30,4.17V2a2,2,0,0,0-2-2H22a2,2,0,0,0-2,2V4.17a2,2,0,0,1-1.34,1.88,18.79,18.79,0,0,0-2.57,1.07,2,2,0,0,1-2.28-.39L12.27,5.2a2,2,0,0,0-2.83,0L5.2,9.44a2,2,0,0,0,0,2.83l1.53,1.54a2,2,0,0,1,.39,2.28,18.79,18.79,0,0,0-1.07,2.57A2,2,0,0,1,4.17,20H2a2,2,0,0,0-2,2v6a2,2,0,0,0,2,2H4.17a2,2,0,0,1,1.88,1.34,18.79,18.79,0,0,0,1.07,2.57,2,2,0,0,1-.39,2.28L5.2,37.73a2,2,0,0,0,0,2.83L9.44,44.8a2,2,0,0,0,2.83,0l1.54-1.53a2,2,0,0,1,2.28-.39A18.79,18.79,0,0,0,18.66,44,2,2,0,0,1,20,45.83V48a2,2,0,0,0,2,2h6a2,2,0,0,0,2-2V45.83A2,2,0,0,1,31.34,44a18.79,18.79,0,0,0,2.57-1.07,2,2,0,0,1,2.28.39l1.54,1.53a2,2,0,0,0,2.83,0l4.24-4.24a2,2,0,0,0,0-2.83l-1.53-1.54a2,2,0,0,1-.39-2.28A18.79,18.79,0,0,0,44,31.34,2,2,0,0,1,45.83,30H48A2,2,0,0,0,50,28Z"/><path class="cls-2" d="M64,53.73V52.27A1.27,1.27,0,0,0,62.73,51a1.25,1.25,0,0,1-1.19-.83A9.78,9.78,0,0,0,61,49a1.27,1.27,0,0,1,.25-1.43,1.27,1.27,0,0,0,0-1.8l-1-1a1.27,1.27,0,0,0-1.8,0A1.26,1.26,0,0,1,57,45a9.78,9.78,0,0,0-1.2-.5A1.26,1.26,0,0,1,55,43.27,1.27,1.27,0,0,0,53.73,42H52.27A1.27,1.27,0,0,0,51,43.27a1.25,1.25,0,0,1-.83,1.19A9.78,9.78,0,0,0,49,45a1.27,1.27,0,0,1-1.43-.25,1.27,1.27,0,0,0-1.8,0l-1,1a1.27,1.27,0,0,0,0,1.8A1.26,1.26,0,0,1,45,49a9.78,9.78,0,0,0-.5,1.2,1.26,1.26,0,0,1-1.19.83A1.27,1.27,0,0,0,42,52.27v1.46A1.27,1.27,0,0,0,43.27,55a1.25,1.25,0,0,1,1.19.83A9.78,9.78,0,0,0,45,57a1.27,1.27,0,0,1-.25,1.43,1.27,1.27,0,0,0,0,1.8l1,1a1.27,1.27,0,0,0,1.8,0A1.26,1.26,0,0,1,49,61a9.78,9.78,0,0,0,1.2.5A1.26,1.26,0,0,1,51,62.73,1.27,1.27,0,0,0,52.27,64h1.46A1.27,1.27,0,0,0,55,62.73a1.25,1.25,0,0,1,.83-1.19A9.78,9.78,0,0,0,57,61a1.27,1.27,0,0,1,1.43.25,1.27,1.27,0,0,0,1.8,0l1-1a1.27,1.27,0,0,0,0-1.8A1.26,1.26,0,0,1,61,57a9.78,9.78,0,0,0,.5-1.2A1.26,1.26,0,0,1,62.73,55,1.27,1.27,0,0,0,64,53.73Z"/><circle class="cls-3" cx="53" cy="53" r="5"/><path class="cls-4" d="M52,35a1,1,0,0,1-.89-1.45l1-2a1,1,0,1,1,1.78.9l-1,2A1,1,0,0,1,52,35Z"/><path class="cls-4" d="M56,39H54a1,1,0,0,1,0-2h2a1,1,0,0,1,0,2Z"/><path class="cls-4" d="M32,54a1,1,0,0,1-.45-1.89l2-1a1,1,0,1,1,.9,1.78C32.25,54,32.32,54,32,54Z"/><path class="cls-4" d="M38,57a1,1,0,0,1-1-1V54a1,1,0,0,1,2,0v2A1,1,0,0,1,38,57Z"/><circle class="cls-3" cx="25" cy="25" r="13"/><path class="cls-1" d="M20,30a1,1,0,0,1-.71-.29l-4-4a1,1,0,0,1,0-1.42l4-4a1,1,0,0,1,1.42,1.42L17.41,25l3.3,3.29A1,1,0,0,1,20,30Z"/><path class="cls-1" d="M30,30a1,1,0,0,1-.71-1.71L32.59,25l-3.3-3.29a1,1,0,0,1,1.42-1.42l4,4a1,1,0,0,1,0,1.42l-4,4A1,1,0,0,1,30,30Z"/><path class="cls-1" d="M24,32a1,1,0,0,1-1-1.16l2-12a1,1,0,1,1,2,.32l-2,12A1,1,0,0,1,24,32Z"/></g></svg>