<svg xmlns="http://www.w3.org/2000/svg" viewBox="0 0 64 64"><defs><style>.cls-1{fill:#50d9d7;}.cls-2{fill:#00bebd;}.cls-3{fill:#93e6e5;}.cls-4{fill:#fff;}.cls-5{fill:#f3f3f3;}.cls-6{fill:#ea9706;}.cls-7{fill:#ffac00;}.cls-8{fill:#d9d9d9;}</style></defs><title>Hand Laptop</title><g id="Hand_Laptop" data-name="Hand Laptop"><path class="cls-1" d="M62,19V58H2V19a3,3,0,0,1,3-3H59A3,3,0,0,1,62,19Z"/><path class="cls-2" d="M1,58H63a1,1,0,0,1,1,1v2a3,3,0,0,1-3,3H3a3,3,0,0,1-3-3V59A1,1,0,0,1,1,58Z"/><path class="cls-3" d="M60,19v4H20l-4-5H59A1,1,0,0,1,60,19Z"/><path class="cls-4" d="M60,23V56H4V19a1,1,0,0,1,1-1H19.08a4,4,0,0,1,3.12,1.5c1.55,1.94,1.64,2.06,1.75,2.17a4,4,0,0,0,3,1.33Z"/><path class="cls-5" d="M39,60H25a2,2,0,0,1-2-2H41A2,2,0,0,1,39,60Z"/><path class="cls-2" d="M47.87,16a14.71,14.71,0,0,1-.38,2h-31a14.71,14.71,0,0,1-.38-2Z"/><path class="cls-1" d="M47.49,18a15.87,15.87,0,0,1-2.27,5H26.92a4,4,0,0,1-3.12-1.5l-1.6-2A4,4,0,0,0,19.08,18Z"/><path class="cls-5" d="M45.22,23a16,16,0,0,1-28.71-5h2.57a4,4,0,0,1,3.12,1.5l1.6,2A4,4,0,0,0,26.92,23Z"/><circle class="cls-6" cx="32" cy="14" r="14"/><circle class="cls-7" cx="32" cy="14" r="11"/><path class="cls-4" d="M27,18a1,1,0,0,1-.71-.29l-3-3a1,1,0,0,1,0-1.42l3-3a1,1,0,0,1,1.42,1.42L25.41,14l2.3,2.29A1,1,0,0,1,27,18Z"/><path class="cls-4" d="M37,18a1,1,0,0,1-.71-1.71L38.59,14l-2.3-2.29a1,1,0,0,1,1.42-1.42l3,3a1,1,0,0,1,0,1.42l-3,3A1,1,0,0,1,37,18Z"/><path class="cls-4" d="M31,20a1,1,0,0,1-1-1.2l2-10a1,1,0,0,1,2,.4l-2,10A1,1,0,0,1,31,20Z"/><path class="cls-7" d="M53.75,34.66C38.61,52,39.72,50.8,39.32,51,26.46,55.24,27.25,55,27,55s.88.25-16.12-4H8V35h2.84l8.83-3c.47-.07-.76,0,10.33,0a1,1,0,0,1,.71.29l6.39,6.4c.19-.12,0,0,6-4.33a10.68,10.68,0,0,1,10.31-1.29A1,1,0,0,1,53.75,34.66Z"/><path class="cls-6" d="M37.1,38.69l-.86.69a7.47,7.47,0,0,1-9.13.14,1,1,0,0,1,1.2-1.6,5.46,5.46,0,0,0,6.68-.1l.69-.55Z"/><path class="cls-2" d="M4,32H9a2,2,0,0,1,2,2V52a2,2,0,0,1-2,2H4a0,0,0,0,1,0,0V32A0,0,0,0,1,4,32Z"/><circle class="cls-5" cx="7" cy="50" r="1"/><rect class="cls-8" x="49" y="51" width="8" height="2"/><rect class="cls-8" x="51" y="47" width="6" height="2"/><rect class="cls-8" x="7" y="23" width="6" height="2"/><rect class="cls-8" x="7" y="27" width="8" height="2"/></g></svg>