<svg xmlns="http://www.w3.org/2000/svg" viewBox="0 0 64 64"><defs><style>.cls-1{fill:#ffac00;}.cls-2{fill:#ea9706;}.cls-3{fill:#f3f3f3;}.cls-4{fill:#d9d9d9;}.cls-5{fill:#50d9d7;}.cls-6{fill:#00bebd;}</style></defs><title>HTML</title><g id="HTML"><path class="cls-1" d="M35,17A17,17,0,1,1,31,6,17,17,0,0,1,35,17Z"/><path class="cls-2" d="M35,18a16.68,16.68,0,0,0,0-2H28a19.32,19.32,0,0,0-2.16-8h6.61A16.85,16.85,0,0,0,31,6H24.6A21.93,21.93,0,0,0,18.55.16a1,1,0,0,0-1.1,0A21.93,21.93,0,0,0,11.4,6H5.05A16.85,16.85,0,0,0,3.58,8h6.61A19.18,19.18,0,0,0,8,16H1a16.68,16.68,0,0,0,0,2H8a19.18,19.18,0,0,0,2.16,8H3.58a16.85,16.85,0,0,0,1.47,2H11.4a22.13,22.13,0,0,0,6,5.84,1,1,0,0,0,1.1,0A21.93,21.93,0,0,0,24.6,28H31a16.85,16.85,0,0,0,1.47-2H25.81A19.18,19.18,0,0,0,28,18ZM18,2.21A20.08,20.08,0,0,1,22.13,6H13.87A20.08,20.08,0,0,1,18,2.21Zm0,29.58A20.08,20.08,0,0,1,13.87,28h8.26A20.08,20.08,0,0,1,18,31.79ZM23.55,26H12.45A16.77,16.77,0,0,1,10,18H26A16.77,16.77,0,0,1,23.55,26ZM10,16a16.77,16.77,0,0,1,2.41-8h11.1A16.86,16.86,0,0,1,26,16Z"/><path class="cls-2" d="M35,17A17,17,0,0,1,13,33.25V14a4,4,0,0,1,4-4H33.48A16.61,16.61,0,0,1,35,17Z"/><path class="cls-3" d="M59,22V62a2,2,0,0,1-2,2H17a2,2,0,0,1-2-2V14a2,2,0,0,1,2-2H49Z"/><path class="cls-4" d="M59,22H51a2,2,0,0,1-2-2V12Z"/><rect class="cls-4" x="15" y="40" width="44" height="20"/><path class="cls-5" d="M13,42H61a2,2,0,0,1,2,2V56a2,2,0,0,1-2,2H11a0,0,0,0,1,0,0V44A2,2,0,0,1,13,42Z"/><polygon class="cls-6" points="11 58 15 62 15 58 11 58"/><path class="cls-6" d="M20,55a1,1,0,0,1-1-1V46a1,1,0,0,1,2,0v8A1,1,0,0,1,20,55Z"/><path class="cls-6" d="M26,55a1,1,0,0,1-1-1V46a1,1,0,0,1,2,0v8A1,1,0,0,1,26,55Z"/><path class="cls-6" d="M26,51H20a1,1,0,0,1,0-2h6a1,1,0,0,1,0,2Z"/><path class="cls-6" d="M36,47H30a1,1,0,0,1,0-2h6a1,1,0,0,1,0,2Z"/><path class="cls-6" d="M33,55a1,1,0,0,1-1-1V46a1,1,0,0,1,2,0v8A1,1,0,0,1,33,55Z"/><path class="cls-6" d="M46,55a1,1,0,0,1-1-1V48.41l-1.29,1.3a1,1,0,0,1-1.42,0L41,48.41V54a1,1,0,0,1-2,0V46a1,1,0,0,1,1.71-.71L43,47.59l2.29-2.3A1,1,0,0,1,47,46v8A1,1,0,0,1,46,55Z"/><path class="cls-6" d="M54,55H50a1,1,0,0,1-1-1V46a1,1,0,0,1,2,0v7h3a1,1,0,0,1,0,2Z"/><path class="cls-1" d="M23,27a1,1,0,0,1-.8-.4l-3-4a1,1,0,0,1,0-1.2l3-4a1,1,0,1,1,1.6,1.2L21.25,22l2.55,3.4A1,1,0,0,1,23,27Z"/><path class="cls-1" d="M33,27a1,1,0,0,1-.71-1.71L35.63,22l-2.88-3.29a1,1,0,0,1,1.5-1.32l3.5,4a1,1,0,0,1,0,1.37l-4,4A1,1,0,0,1,33,27Z"/><path class="cls-1" d="M27,28a1,1,0,0,1-1-1.2l2-10a1,1,0,1,1,2,.4l-2,10A1,1,0,0,1,27,28Z"/><rect class="cls-4" x="19" y="30" width="8" height="2"/><rect class="cls-4" x="19" y="34" width="8" height="2"/><rect class="cls-4" x="31" y="30" width="16" height="2"/><rect class="cls-4" x="31" y="34" width="16" height="2"/></g></svg>