<svg xmlns="http://www.w3.org/2000/svg" viewBox="0 0 64 64"><defs><style>.cls-1{fill:#00bebd;}.cls-2{fill:#50d9d7;}.cls-3{fill:#00aaa8;}.cls-4{fill:#ea9706;}.cls-5{fill:#ffac00;}.cls-6{fill:#fff;}.cls-7{fill:#f3f3f3;}.cls-8{fill:#d9d9d9;}</style></defs><title>Internet</title><g id="Internet"><path class="cls-1" d="M54.63,45a28,28,0,1,1,0-30A28,28,0,0,1,54.63,45Z"/><path class="cls-2" d="M47,31H59a16.68,16.68,0,0,0,0-2H47a32,32,0,0,0-2.62-12H55.8c-.36-.68-.74-1.35-1.17-2H43.39A34.22,34.22,0,0,0,34,4V6.55A32.46,32.46,0,0,1,41.09,15H34v2h8.15A29.53,29.53,0,0,1,45,29H3a16.68,16.68,0,0,0,0,2H15a32,32,0,0,0,2.62,12H6.2c.36.68.74,1.35,1.17,2H18.61A35.61,35.61,0,0,0,30.44,57.83a1,1,0,0,0,1.12,0A35.76,35.76,0,0,0,43.39,45H54.63c.43-.65.81-1.32,1.17-2H44.35A32.35,32.35,0,0,0,47,31ZM31,55.79A34.16,34.16,0,0,1,20.91,45H41.09A34.11,34.11,0,0,1,31,55.79ZM42.15,43H19.85A29.53,29.53,0,0,1,17,31H45A29.72,29.72,0,0,1,42.15,43Z"/><path class="cls-3" d="M41.09,45A31.64,31.64,0,0,1,36,51.59,14.91,14.91,0,0,1,37.26,45Z"/><path class="cls-3" d="M54.63,45A28,28,0,0,1,37.38,57.27a14.57,14.57,0,0,1-1.06-3.19A33.6,33.6,0,0,0,43.39,45Z"/><path class="cls-3" d="M57.92,37.7A27.15,27.15,0,0,1,55.8,43H44.35a30.38,30.38,0,0,0,2-6.24A14.9,14.9,0,0,1,57.92,37.7Z"/><path class="cls-3" d="M44,37.72A27.88,27.88,0,0,1,42.15,43H38.32A15.13,15.13,0,0,1,44,37.72Z"/><path class="cls-1" d="M55.8,43c-.36.68-.74,1.35-1.17,2H43.39a33.6,33.6,0,0,1-7.07,9.08A14.61,14.61,0,0,1,36,51.59,31.64,31.64,0,0,0,41.09,45H37.26a13.16,13.16,0,0,1,1.06-2h3.83A27.88,27.88,0,0,0,44,37.72a13,13,0,0,1,2.27-1,30.38,30.38,0,0,1-2,6.24Z"/><circle class="cls-4" cx="51" cy="51" r="13"/><circle class="cls-5" cx="51" cy="51" r="10"/><path class="cls-6" d="M47,55a1,1,0,0,1-.71-.29l-3-3a1,1,0,0,1,0-1.42l3-3a1,1,0,0,1,1.42,1.42L45.41,51l2.3,2.29A1,1,0,0,1,47,55Z"/><path class="cls-6" d="M55,55a1,1,0,0,1-.71-1.71L56.59,51l-2.3-2.29a1,1,0,0,1,1.42-1.42l3,3a1,1,0,0,1,0,1.42l-3,3A1,1,0,0,1,55,55Z"/><path class="cls-6" d="M50,57a1,1,0,0,1-1-1.2l2-10a1,1,0,1,1,2,.4l-2,10A1,1,0,0,1,50,57Z"/><path class="cls-1" d="M20.91,15H34v2H19.85A29.53,29.53,0,0,0,17,29H15a32,32,0,0,1,2.62-12H6.2c.36-.68.74-1.35,1.17-2H18.61A35.61,35.61,0,0,1,30.44,2.17a1,1,0,0,1,1.12,0C32.41,2.75,33.22,3.34,34,4V6.55a35.54,35.54,0,0,0-3-2.34A34.16,34.16,0,0,0,20.91,15Z"/><path class="cls-3" d="M17.65,17A32,32,0,0,0,15,29H3A27.62,27.62,0,0,1,6.2,17Z"/><path class="cls-3" d="M34,2.16V4c-.78-.62-1.59-1.21-2.44-1.79A1,1,0,0,0,31,2,27,27,0,0,1,34,2.16Z"/><path class="cls-3" d="M31,4.21a35.54,35.54,0,0,1,3,2.34V15H20.91A34.16,34.16,0,0,1,31,4.21Z"/><path class="cls-3" d="M19.85,17H34v8a4,4,0,0,1-4,4H17A29.53,29.53,0,0,1,19.85,17Z"/><path class="cls-2" d="M14,0H30a2,2,0,0,1,2,2V4a0,0,0,0,1,0,0H14a0,0,0,0,1,0,0V0A0,0,0,0,1,14,0Z"/><path class="cls-7" d="M32,4V25a2,2,0,0,1-2,2H2a2,2,0,0,1-2-2V2A2,2,0,0,1,2,0H13a2,2,0,0,1,1.6.8l1.8,2.4A2,2,0,0,0,18,4Z"/><rect class="cls-8" x="10" y="7" width="2" height="16"/><rect class="cls-2" x="3" y="9" width="4" height="2"/><rect class="cls-2" x="3" y="14" width="4" height="2"/><rect class="cls-2" x="3" y="19" width="4" height="2"/><rect class="cls-2" x="15" y="9" width="5" height="2"/><rect class="cls-5" x="23" y="9" width="6" height="2"/><rect class="cls-5" x="15" y="14" width="6" height="2"/><rect class="cls-2" x="24" y="14" width="3" height="2"/><rect class="cls-2" x="15" y="19" width="4" height="2"/><rect class="cls-2" x="22" y="19" width="7" height="2"/></g></svg>