<svg xmlns="http://www.w3.org/2000/svg" viewBox="0 0 64 64"><defs><style>.cls-1{fill:#00aaa8;}.cls-2{fill:#00bebd;}.cls-3{fill:#50d9d7;}.cls-4{fill:#ea9706;}.cls-5{fill:#ffac00;}.cls-6{fill:#fff;}</style></defs><title>Layer</title><g id="Layer"><path class="cls-1" d="M32,60c-.3,0,1.32.62-22.38-9.07a1,1,0,0,1,0-1.86l22-9a1,1,0,0,1,.76,0l22,9a1,1,0,0,1,0,1.86C31,60.51,32.3,60,32,60Z"/><path class="cls-2" d="M32,50c-.3,0,1.32.62-22.38-9.07a1,1,0,0,1,0-1.86l22-9a1,1,0,0,1,.76,0l22,9a1,1,0,0,1,0,1.86C31,50.51,32.3,50,32,50Z"/><path class="cls-3" d="M54.38,29.07l-22-9a1,1,0,0,0-.76,0l-22,9a1,1,0,0,0,0,1.86l22,9a1.1,1.1,0,0,0,.76,0l22-9A1,1,0,0,0,54.38,29.07Z"/><path class="cls-2" d="M44.63,25.08a15,15,0,0,1-25.26,0l12.25-5a1,1,0,0,1,.76,0Z"/><circle class="cls-4" cx="32" cy="17" r="13"/><circle class="cls-5" cx="32" cy="17" r="10"/><path class="cls-6" d="M28,21a1,1,0,0,1-.71-.29l-3-3a1,1,0,0,1,0-1.42l3-3a1,1,0,0,1,1.42,1.42L26.41,17l2.3,2.29A1,1,0,0,1,28,21Z"/><path class="cls-6" d="M36,21a1,1,0,0,1-.71-1.71L37.59,17l-2.3-2.29a1,1,0,0,1,1.42-1.42l3,3a1,1,0,0,1,0,1.42l-3,3A1,1,0,0,1,36,21Z"/><path class="cls-6" d="M31,23a1,1,0,0,1-1-1.2l2-10a1,1,0,1,1,2,.4l-2,10A1,1,0,0,1,31,23Z"/><path class="cls-5" d="M63.71,44.29a1,1,0,0,0-1.42,0L61,45.59V38a1,1,0,0,0-2,0v7.59l-1.29-1.3a1,1,0,0,0-1.42,1.42l3,3a1,1,0,0,0,1.42,0l3-3A1,1,0,0,0,63.71,44.29Z"/><path class="cls-5" d="M4.71,21.29a1,1,0,0,0-1.42,0l-3,3a1,1,0,0,0,1.42,1.42L3,24.41V32a1,1,0,0,0,2,0V24.41l1.29,1.3a1,1,0,1,0,1.42-1.42Z"/></g></svg>