<svg xmlns="http://www.w3.org/2000/svg" viewBox="0 0 64 64"><defs><style>.cls-1{fill:#50d9d7;}.cls-2{fill:#00bebd;}.cls-3{fill:#93e6e5;}.cls-4{fill:#f3f3f3;}.cls-5{fill:#d9d9d9;}.cls-6{fill:#ffac00;}.cls-7{fill:#ea9706;}</style></defs><title>layout</title><g id="layout"><path class="cls-1" d="M62,14V53H2V14a3,3,0,0,1,3-3H59A3,3,0,0,1,62,14Z"/><path class="cls-2" d="M1,53H63a1,1,0,0,1,1,1v2a3,3,0,0,1-3,3H3a3,3,0,0,1-3-3V54a1,1,0,0,1,1-1Z"/><path class="cls-3" d="M60,14v4H20l-4-5H59A1,1,0,0,1,60,14Z"/><path class="cls-4" d="M60,18V51H4V14a1,1,0,0,1,1-1H19.08a4,4,0,0,1,3.12,1.5c1.55,1.94,1.64,2.06,1.75,2.17a4,4,0,0,0,3,1.33Z"/><path class="cls-4" d="M39,55H25a2,2,0,0,1-2-2H41A2,2,0,0,1,39,55Z"/><path class="cls-1" d="M33,9H56V7a2,2,0,0,0-2-2H33Z"/><polygon class="cls-3" points="22 9 41 9 38 5 22 5 22 9"/><rect class="cls-2" x="6" y="11" width="52" height="2"/><path class="cls-1" d="M58,13v5H26.92a4,4,0,0,1-3.12-1.5l-1.6-2A4,4,0,0,0,19.08,13Z"/><path class="cls-5" d="M58,18V51H6V13H19.08a4,4,0,0,1,3.12,1.5l1.6,2A4,4,0,0,0,26.92,18Z"/><path class="cls-4" d="M56,9V51H8V7a2,2,0,0,1,2-2H24a2,2,0,0,1,1.6.8l1.8,2.4A2,2,0,0,0,29,9Z"/><rect class="cls-6" x="38" y="28" width="14" height="20" rx="2"/><rect class="cls-5" x="16" y="28" width="18" height="2"/><rect class="cls-5" x="12" y="32" width="22" height="2"/><rect class="cls-5" x="12" y="36" width="22" height="2"/><rect class="cls-5" x="12" y="40" width="22" height="2"/><rect class="cls-5" x="12" y="44" width="14" height="2"/><path class="cls-7" d="M49,46a1,1,0,0,1-.87-.5l-8-14a1,1,0,0,1,1.74-1l8,14A1,1,0,0,1,49,46Z"/><path class="cls-7" d="M41,46a1,1,0,0,1-.87-1.5l8-14a1,1,0,0,1,1.74,1l-8,14A1,1,0,0,1,41,46Z"/><rect class="cls-1" x="12" y="12" width="40" height="12"/><path class="cls-2" d="M49,22c-.14,0,2,.38-34.17-6a1,1,0,0,1,.34-2l34,6A1,1,0,0,1,49,22Z"/><path class="cls-2" d="M15,22a1,1,0,0,1-.17-2l34-6a1,1,0,1,1,.34,2C12.76,22.41,15.14,22,15,22Z"/><circle class="cls-6" cx="11" cy="8" r="1"/><circle class="cls-6" cx="15" cy="8" r="1"/><circle class="cls-6" cx="19" cy="8" r="1"/></g></svg>