<svg xmlns="http://www.w3.org/2000/svg" viewBox="0 0 64 64"><defs><style>.cls-1{fill:#50d9d7;}.cls-2{fill:#00bebd;}.cls-3{fill:#93e6e5;}.cls-4{fill:#fff;}.cls-5{fill:#f3f3f3;}.cls-6{fill:#ffac00;}.cls-7{fill:#ea9706;}.cls-8{fill:#d9d9d9;}</style></defs><title>Maintenance Computer</title><g id="Maintenance_Computer" data-name="Maintenance Computer"><path class="cls-1" d="M64,8.17V49.83A4.08,4.08,0,0,1,60,54H4a4.08,4.08,0,0,1-4-4.17V8.17A4.08,4.08,0,0,1,4,4H60A4.08,4.08,0,0,1,64,8.17Z"/><path class="cls-2" d="M44,64H20a13.7,13.7,0,0,0,4-10H40A13.68,13.68,0,0,0,44,64Z"/><path class="cls-1" d="M45,64H19a1,1,0,0,1,0-2H45a1,1,0,0,1,0,2Z"/><path class="cls-3" d="M61,7.4V22.6c0,.22-.45.4-1,.4H4c-.55,0-1-.18-1-.4V7.4c0-.22.45-.4,1-.4H60C60.55,7,61,7.18,61,7.4Z"/><path class="cls-4" d="M61,12V48a1,1,0,0,1-1,1H4a1,1,0,0,1-1-1V8A1,1,0,0,1,4,7c17.54,0,16.33,0,17,.11A4,4,0,0,1,23.2,8.5l1.6,2A4,4,0,0,0,27.92,12Z"/><path class="cls-2" d="M34.84,7H24V4h9.24A15.42,15.42,0,0,1,34.84,7Z"/><path class="cls-2" d="M16,4V7H5.15A16.34,16.34,0,0,1,6.76,4Z"/><path class="cls-1" d="M36,12h-8a4,4,0,0,1-3.12-1.5l-.8-1V7H34.84A15.9,15.9,0,0,1,36,12Z"/><path class="cls-5" d="M28,26.86V49H12V26.86A16.07,16.07,0,0,1,5.15,7H16v3.74l4,1.14,4-1.14V9.5l.8,1A4,4,0,0,0,27.92,12h8A16.08,16.08,0,0,1,28,26.86Z"/><path class="cls-6" d="M27.54.15A1,1,0,0,0,26,1V11.19L20,12.9l-6-1.71V1A1,1,0,0,0,12.46.15,14,14,0,0,0,14,24.59V49H26V24.59A14,14,0,0,0,27.54.15Z"/><path class="cls-7" d="M20,45a2,2,0,0,1-2-2V33a2,2,0,0,1,4,0V43A2,2,0,0,1,20,45Z"/><path class="cls-1" d="M54,29.69V28.31A1.31,1.31,0,0,0,52.69,27a1.3,1.3,0,0,1-1.21-.81c-.06-.17-.13-.33-.2-.49a1.28,1.28,0,0,1,.28-1.43,1.31,1.31,0,0,0,0-1.85l-1-1a1.31,1.31,0,0,0-1.85,0,1.29,1.29,0,0,1-1.43.28l-.49-.2A1.3,1.3,0,0,1,46,20.31,1.31,1.31,0,0,0,44.69,19H43.31A1.31,1.31,0,0,0,42,20.31a1.3,1.3,0,0,1-.81,1.21l-.49.2a1.28,1.28,0,0,1-1.43-.28,1.31,1.31,0,0,0-1.85,0l-1,1a1.31,1.31,0,0,0,0,1.85,1.29,1.29,0,0,1,.28,1.43c-.07.16-.14.32-.2.49a1.3,1.3,0,0,1-1.21.81A1.31,1.31,0,0,0,34,28.31v1.38A1.31,1.31,0,0,0,35.31,31a1.3,1.3,0,0,1,1.21.81c.06.17.13.33.2.49a1.28,1.28,0,0,1-.28,1.43,1.31,1.31,0,0,0,0,1.85l1,1a1.31,1.31,0,0,0,1.85,0,1.29,1.29,0,0,1,1.43-.28l.49.2A1.3,1.3,0,0,1,42,37.69,1.31,1.31,0,0,0,43.31,39h1.38A1.31,1.31,0,0,0,46,37.69a1.3,1.3,0,0,1,.81-1.21l.49-.2a1.28,1.28,0,0,1,1.43.28,1.31,1.31,0,0,0,1.85,0l1-1a1.31,1.31,0,0,0,0-1.85,1.29,1.29,0,0,1-.28-1.43c.07-.16.14-.32.2-.49A1.3,1.3,0,0,1,52.69,31,1.31,1.31,0,0,0,54,29.69Z"/><circle class="cls-2" cx="44" cy="29" r="5"/><rect class="cls-8" x="33" y="41" width="6" height="2"/><rect class="cls-8" x="43" y="41" width="13" height="2"/><rect class="cls-8" x="33" y="45" width="6" height="2"/><rect class="cls-8" x="43" y="45" width="13" height="2"/></g></svg>