<svg xmlns="http://www.w3.org/2000/svg" viewBox="0 0 64 64"><defs><style>.cls-1{fill:#50d9d7;}.cls-2{fill:#00bebd;}.cls-3{fill:#93e6e5;}.cls-4{fill:#fff;}.cls-5{fill:#f3f3f3;}.cls-6{fill:#ffac00;}.cls-7{fill:#d9d9d9;}.cls-8{fill:#ea9706;}</style></defs><title>Maintenance Laptop</title><g id="Maintenance_Laptop" data-name="Maintenance Laptop"><path class="cls-1" d="M62,19V58H2V19a3,3,0,0,1,2-2.82c.68-.26,0-.18,12.62-.18L20,17l3.37-1H59A3,3,0,0,1,62,19Z"/><path class="cls-2" d="M1,58H63a1,1,0,0,1,1,1v2a3,3,0,0,1-3,3H3a3,3,0,0,1-3-3V59A1,1,0,0,1,1,58Z"/><path class="cls-3" d="M60,19v4H20l-4-5H59A1,1,0,0,1,60,19Z"/><path class="cls-4" d="M60,23V56H4c0-39.55-.09-37.19.19-37.59A1,1,0,0,1,5,18H19.08a4,4,0,0,1,3.12,1.5l1.6,2A4,4,0,0,0,26.92,23Z"/><path class="cls-5" d="M39,60H25a2,2,0,0,1-2-2H41A2,2,0,0,1,39,60Z"/><path class="cls-5" d="M33.21,21A16,16,0,0,1,28,25.86V54H12V25.86a16.06,16.06,0,0,1-7.46-9.75C4.85,16,4,16,16,16l4,5Z"/><path class="cls-1" d="M34.82,18a16.15,16.15,0,0,1-3.22,5H20l-4-5Z"/><path class="cls-2" d="M35.48,16a14.19,14.19,0,0,1-.66,2H5.17a16.72,16.72,0,0,1-.65-2c.3-.06-.5,0,12.11,0L20,17l3.37-1Z"/><path class="cls-6" d="M27.54.21A1,1,0,0,0,26,1.06V11.25L20,13l-6-1.71V1.06A1,1,0,0,0,12.46.21,14,14,0,0,0,14,24.65V56H26V24.65A14,14,0,0,0,27.54.21Z"/><path class="cls-1" d="M54,36.69V35.31A1.31,1.31,0,0,0,52.69,34a1.3,1.3,0,0,1-1.21-.81c-.06-.17-.13-.33-.2-.49a1.28,1.28,0,0,1,.28-1.43,1.31,1.31,0,0,0,0-1.85l-1-1a1.31,1.31,0,0,0-1.85,0,1.29,1.29,0,0,1-1.43.28l-.49-.2A1.3,1.3,0,0,1,46,27.31,1.31,1.31,0,0,0,44.69,26H43.31A1.31,1.31,0,0,0,42,27.31a1.3,1.3,0,0,1-.81,1.21l-.49.2a1.28,1.28,0,0,1-1.43-.28,1.31,1.31,0,0,0-1.85,0l-1,1a1.31,1.31,0,0,0,0,1.85,1.29,1.29,0,0,1,.28,1.43c-.07.16-.14.32-.2.49a1.3,1.3,0,0,1-1.21.81A1.31,1.31,0,0,0,34,35.31v1.38A1.31,1.31,0,0,0,35.31,38a1.3,1.3,0,0,1,1.21.81c.06.17.13.33.2.49a1.28,1.28,0,0,1-.28,1.43,1.31,1.31,0,0,0,0,1.85l1,1a1.31,1.31,0,0,0,1.85,0,1.29,1.29,0,0,1,1.43-.28l.49.2A1.3,1.3,0,0,1,42,44.69,1.31,1.31,0,0,0,43.31,46h1.38A1.31,1.31,0,0,0,46,44.69a1.3,1.3,0,0,1,.81-1.21l.49-.2a1.28,1.28,0,0,1,1.43.28,1.31,1.31,0,0,0,1.85,0l1-1a1.31,1.31,0,0,0,0-1.85,1.29,1.29,0,0,1-.28-1.43c.07-.16.14-.32.2-.49A1.3,1.3,0,0,1,52.69,38,1.31,1.31,0,0,0,54,36.69Z"/><circle class="cls-2" cx="44" cy="36" r="5"/><rect class="cls-7" x="33" y="48" width="6" height="2"/><rect class="cls-7" x="43" y="48" width="13" height="2"/><rect class="cls-7" x="33" y="52" width="6" height="2"/><rect class="cls-7" x="43" y="52" width="13" height="2"/><path class="cls-8" d="M20,52a2,2,0,0,1-2-2V40a2,2,0,0,1,4,0V50A2,2,0,0,1,20,52Z"/></g></svg>