<svg xmlns="http://www.w3.org/2000/svg" viewBox="0 0 64 64"><defs><style>.cls-1{fill:#50d9d7;}.cls-2{fill:#f3f3f3;}.cls-3{fill:#d9d9d9;}.cls-4{fill:#00bebd;}.cls-5{fill:#ffac00;}</style></defs><title>Mobile Code</title><g id="Mobile_Code" data-name="Mobile Code"><path class="cls-1" d="M40,8V56a8,8,0,0,1-5.75,7.68c-1.52.45-.39.32-26.25.32a8,8,0,0,1-8-8V8A8,8,0,0,1,8,0H32A8,8,0,0,1,40,8Z"/><path class="cls-2" d="M37,9V54a6,6,0,0,1-6,6H9a6,6,0,0,1-6-6V9A6,6,0,0,1,9,3h3.29a1,1,0,0,1,.94.68l.31.95A2,2,0,0,0,15.44,6h9.12a2,2,0,0,0,1.9-1.37l.31-.94A1,1,0,0,1,27.72,3H31A6,6,0,0,1,37,9Z"/><path class="cls-3" d="M30,58H10a1,1,0,0,1,0-2H30a1,1,0,0,1,0,2Z"/><path class="cls-1" d="M40,12H62a2,2,0,0,1,2,2v2a0,0,0,0,1,0,0H40a0,0,0,0,1,0,0V12A0,0,0,0,1,40,12Z"/><path class="cls-4" d="M40,10.13V52H37V10A11.79,11.79,0,0,1,40,10.13Z"/><path class="cls-3" d="M37,10V52H28a4,4,0,0,1-4-4V14a4,4,0,0,1,4-4Z"/><path class="cls-2" d="M64,16V48a2,2,0,0,1-2,2H28a2,2,0,0,1-2-2V14a2,2,0,0,1,2-2H39a2,2,0,0,1,1.6.8l1.8,2.4A2,2,0,0,0,44,16Z"/><rect class="cls-3" x="37" y="21" width="2" height="16"/><rect class="cls-1" x="30" y="23" width="4" height="2"/><rect class="cls-1" x="30" y="28" width="4" height="2"/><rect class="cls-1" x="30" y="33" width="4" height="2"/><rect class="cls-1" x="42" y="23" width="8" height="2"/><rect class="cls-5" x="54" y="23" width="6" height="2"/><rect class="cls-5" x="42" y="28" width="8" height="2"/><rect class="cls-1" x="54" y="28" width="6" height="2"/><rect class="cls-1" x="42" y="33" width="4" height="2"/><rect class="cls-1" x="50" y="33" width="8" height="2"/><path class="cls-3" d="M50,46c-.54,0-.57-.15-2.71-2.29a1,1,0,0,1,0-1.42l2-2a1,1,0,0,1,1.42,1.42L49.41,43l1.3,1.29A1,1,0,0,1,50,46Z"/><path class="cls-3" d="M59,46a1,1,0,0,1-.71-1.71L59.59,43l-1.3-1.29a1,1,0,0,1,1.42-1.42l2,2a1,1,0,0,1,0,1.42C59.53,45.89,59.54,46,59,46Z"/><path class="cls-3" d="M54,47a1,1,0,0,1-1-1.16l1-6a1,1,0,0,1,2,.32l-1,6A1,1,0,0,1,54,47Z"/><rect class="cls-3" x="7" y="12" width="4" height="2"/><rect class="cls-3" x="14" y="12" width="6" height="2"/><rect class="cls-3" x="7" y="16" width="4" height="2"/><rect class="cls-3" x="14" y="16" width="6" height="2"/><rect class="cls-3" x="7" y="20" width="13" height="2"/></g></svg>