<svg xmlns="http://www.w3.org/2000/svg" viewBox="0 0 64 64"><defs><style>.cls-1{fill:#50d9d7;}.cls-2{fill:#ea9807;}.cls-3{fill:#ffac00;}.cls-4{fill:#00aaa8;}.cls-5{fill:#00bebd;}.cls-6{fill:#fff;}</style></defs><title>Programmer</title><g id="Programmer"><path class="cls-1" d="M34,42V61H0V42a4,4,0,0,1,2.82-3.82L13,35h8l10.18,3.13A4,4,0,0,1,34,42Z"/><path class="cls-2" d="M17,41a5,5,0,0,1-5-5V33H22v3A5,5,0,0,1,17,41Z"/><path class="cls-3" d="M17,36a9,9,0,0,1-9-9V20H26v7A9,9,0,0,1,17,36Z"/><rect class="cls-4" x="6" y="18" width="2" height="6"/><path class="cls-5" d="M26,20H7a3,3,0,0,1-3-3V11H22a3,3,0,0,1,3,3,3,3,0,0,1,3,3v7H26Z"/><path class="cls-3" d="M8,23v5H7.5a2.5,2.5,0,0,1,0-5Z"/><path class="cls-3" d="M26.5,28H26V23h.5a2.5,2.5,0,0,1,0,5Z"/><path class="cls-2" d="M14.55,32.89a1,1,0,0,1,.9-1.78,3.52,3.52,0,0,0,3.1,0,1,1,0,0,1,.9,1.78A5.49,5.49,0,0,1,14.55,32.89Z"/><path class="cls-3" d="M38,5V21a2,2,0,0,0,2,2h7a2,2,0,0,1,1.6.8l1.6,2.13a1,1,0,0,0,1.6,0l1.6-2.13A2,2,0,0,1,55,23h7a2,2,0,0,0,2-2V5a2,2,0,0,0-2-2H40A2,2,0,0,0,38,5Z"/><path class="cls-6" d="M46,17a1,1,0,0,1-.71-.29l-3-3a1,1,0,0,1,0-1.42l3-3a1,1,0,0,1,1.42,1.42L44.41,13l2.3,2.29A1,1,0,0,1,46,17Z"/><path class="cls-6" d="M56,17a1,1,0,0,1-.71-1.71L57.59,13l-2.3-2.29a1,1,0,0,1,1.42-1.42l3,3a1,1,0,0,1,0,1.42l-3,3A1,1,0,0,1,56,17Z"/><path class="cls-6" d="M50,19a1,1,0,0,1-1-1.2l2-10a1,1,0,1,1,2,.4l-2,10A1,1,0,0,1,50,19Z"/><path class="cls-4" d="M23,56H42a0,0,0,0,1,0,0v5a0,0,0,0,1,0,0H25a3,3,0,0,1-3-3V57A1,1,0,0,1,23,56Z"/><path class="cls-5" d="M58,61H33a1,1,0,0,1-1-1.2l5-24a1,1,0,0,1,1-.8H63a1,1,0,0,1,1,1.2l-5,24A1,1,0,0,1,58,61Z"/><path class="cls-5" d="M25,51a3,3,0,0,1-3-3V44h6v4A3,3,0,0,1,25,51Z"/><rect class="cls-4" x="22" y="44" width="6" height="2"/><circle class="cls-6" cx="48" cy="48" r="3"/></g></svg>