<svg xmlns="http://www.w3.org/2000/svg" viewBox="0 0 64 64"><defs><style>.cls-1{fill:#ea9706;}.cls-2{fill:#00bebd;}.cls-3{fill:#50d9d7;}.cls-4{fill:#00aaa8;}.cls-5{fill:#ffac00;}.cls-6{fill:#93e6e5;}.cls-7{fill:#fff;}</style></defs><title>Protection</title><g id="Protection"><path class="cls-1" d="M17,64H3l3-5L3,54H19v8A2,2,0,0,1,17,64Z"/><path class="cls-1" d="M47,64H61l-3-5,3-5H45v8A2,2,0,0,0,47,64Z"/><path class="cls-2" d="M55,12V22.3A36.19,36.19,0,0,1,32,56,36.2,36.2,0,0,1,9,22.3V12L32,2Z"/><path class="cls-3" d="M55.4,11.08l-23-10a1,1,0,0,0-.8,0l-23,10A1,1,0,0,0,8,12V22.3A37,37,0,0,0,31.64,56.93a1,1,0,0,0,.72,0A37,37,0,0,0,56,22.3V12A1,1,0,0,0,55.4,11.08ZM54,22.3A35,35,0,0,1,32,54.92,35,35,0,0,1,10,22.3V12.66L32,3.09l22,9.57Z"/><path class="cls-4" d="M42.89,48A35.12,35.12,0,0,1,32,54.92,35.12,35.12,0,0,1,21.11,48Z"/><path class="cls-2" d="M45.74,48a37.19,37.19,0,0,1-13.38,8.93,1,1,0,0,1-.72,0A37.19,37.19,0,0,1,18.26,48h2.85A35.12,35.12,0,0,0,32,54.92,35.12,35.12,0,0,0,42.89,48Z"/><rect class="cls-5" x="12" y="50" width="40" height="10" rx="2"/><circle class="cls-3" cx="32" cy="29" r="16"/><circle class="cls-6" cx="32" cy="29" r="13"/><path class="cls-7" d="M37,34a1,1,0,0,1-.71-1.71L39.59,29l-3.3-3.29a1,1,0,0,1,1.42-1.42l4,4a1,1,0,0,1,0,1.42l-4,4A1,1,0,0,1,37,34Z"/><path class="cls-7" d="M27,34a1,1,0,0,1-.71-.29l-4-4a1,1,0,0,1,0-1.42l4-4a1,1,0,0,1,1.42,1.42L24.41,29l3.3,3.29A1,1,0,0,1,27,34Z"/><path class="cls-5" d="M9.26,8.28a6.29,6.29,0,0,0-3.1,4.2L6,13.15a1,1,0,0,1-2,0l-.14-.67a6.29,6.29,0,0,0-3.1-4.2,1.48,1.48,0,0,1,0-2.56,6.29,6.29,0,0,0,3.1-4.2L4,.85a1,1,0,0,1,2,0l.14.67a6.29,6.29,0,0,0,3.1,4.2A1.48,1.48,0,0,1,9.26,8.28Z"/><path class="cls-5" d="M62.26,44.28a6.29,6.29,0,0,0-3.1,4.2l-.14.67a1,1,0,0,1-2,0l-.14-.67a6.29,6.29,0,0,0-3.1-4.2,1.48,1.48,0,0,1,0-2.56,6.29,6.29,0,0,0,3.1-4.2l.14-.67a1,1,0,0,1,2,0l.14.67a6.29,6.29,0,0,0,3.1,4.2A1.48,1.48,0,0,1,62.26,44.28Z"/><path class="cls-7" d="M31,36a1,1,0,0,1-1-1.16l2-12a1,1,0,1,1,2,.32l-2,12A1,1,0,0,1,31,36Z"/></g></svg>