<svg xmlns="http://www.w3.org/2000/svg" viewBox="0 0 64 64"><defs><style>.cls-1{fill:#50d9d7;}.cls-2{fill:#00bebd;}.cls-3{fill:#93e6e5;}.cls-4{fill:#fff;}.cls-5{fill:#d9d9d9;}.cls-6{fill:#ffac00;}.cls-7{fill:#00aaa8;}.cls-8{fill:#f3f3f3;}</style></defs><title>Responsive</title><g id="Responsive"><path class="cls-1" d="M62,3V42H2V3A3,3,0,0,1,5,0H59A3,3,0,0,1,62,3Z"/><path class="cls-2" d="M64,43v2a3,3,0,0,1-3,3H3a3,3,0,0,1-3-3V43a1,1,0,0,1,1-1H63A1,1,0,0,1,64,43Z"/><path class="cls-3" d="M60,3V7H20L16,2H59A1,1,0,0,1,60,3Z"/><path class="cls-4" d="M60,7V40H4V3A1,1,0,0,1,5,2H19.08A4,4,0,0,1,22.2,3.5C23.75,5.44,23.84,5.56,24,5.67a4,4,0,0,0,3,1.33Z"/><rect class="cls-5" x="14" y="10" width="2" height="26"/><rect class="cls-1" x="7" y="12" width="4" height="2"/><rect class="cls-1" x="7" y="16" width="4" height="2"/><rect class="cls-1" x="7" y="20" width="4" height="2"/><rect class="cls-1" x="7" y="24" width="4" height="2"/><rect class="cls-1" x="7" y="28" width="4" height="2"/><rect class="cls-1" x="7" y="32" width="4" height="2"/><rect class="cls-1" x="19" y="12" width="8" height="2"/><rect class="cls-1" x="31" y="12" width="16" height="2"/><rect class="cls-1" x="19" y="24" width="8" height="2"/><rect class="cls-1" x="31" y="24" width="16" height="2"/><rect class="cls-1" x="19" y="20" width="4" height="2"/><rect class="cls-1" x="27" y="20" width="14" height="2"/><rect class="cls-6" x="19" y="16" width="8" height="2"/><rect class="cls-1" x="31" y="16" width="10" height="2"/><rect class="cls-1" x="45" y="17" width="6" height="2"/><rect class="cls-6" x="19" y="28" width="8" height="2"/><rect class="cls-1" x="31" y="28" width="10" height="2"/><rect class="cls-1" x="45" y="29" width="6" height="2"/><rect class="cls-6" x="45" y="21" width="6" height="2"/><rect class="cls-1" x="19" y="32" width="4" height="2"/><rect class="cls-1" x="27" y="32" width="14" height="2"/><rect class="cls-6" x="45" y="33" width="6" height="2"/><path class="cls-4" d="M41,42a2,2,0,0,1-2,2H25a2,2,0,0,1-2-2Z"/><path class="cls-7" d="M64,43v2a3,3,0,0,1-3,3H32V44h7a2,2,0,0,0,2-2H63A1,1,0,0,1,64,43Z"/><path class="cls-2" d="M62,13.08V42H32V40H60V12.26A7.8,7.8,0,0,1,62,13.08Z"/><path class="cls-8" d="M41,42a2,2,0,0,1-2,2H32V42Z"/><path class="cls-8" d="M60,12.26V40H32V34h9V32H32V30h9V28H32V26H47V24H32V22h9V20H32a8.24,8.24,0,0,1,.25-2H41V16H33.08a7.9,7.9,0,0,1,1.64-2H47V12C58.81,12,58.68,11.91,60,12.26Z"/><path class="cls-2" d="M41,18H32.25a8.2,8.2,0,0,1,.83-2H41Z"/><rect class="cls-2" x="32" y="20" width="9" height="2"/><rect class="cls-2" x="32" y="28" width="9" height="2"/><rect class="cls-2" x="32" y="32" width="9" height="2"/><path class="cls-2" d="M47,12v2H34.72A8,8,0,0,1,40,12Z"/><rect class="cls-2" x="32" y="24" width="15" height="2"/><rect class="cls-6" x="34" y="14" width="30" height="50" rx="6"/><path class="cls-4" d="M62,20V57a4,4,0,0,1-4,4H40a4,4,0,0,1-4-4V20a4,4,0,0,1,4-4h1.28a1,1,0,0,1,.95.68l.31.95A2,2,0,0,0,44.44,19h9.12a2,2,0,0,0,1.9-1.37l.31-.95a1,1,0,0,1,.95-.68H58A4,4,0,0,1,62,20Z"/><path class="cls-2" d="M54,38a1,1,0,0,1-.71-1.71L56.59,33l-3.3-3.29a1,1,0,0,1,1.42-1.42l4,4a1,1,0,0,1,0,1.42l-4,4A1,1,0,0,1,54,38Z"/><path class="cls-2" d="M44,38a1,1,0,0,1-.71-.29l-4-4a1,1,0,0,1,0-1.42l4-4a1,1,0,0,1,1.42,1.42L41.41,33l3.3,3.29A1,1,0,0,1,44,38Z"/><path class="cls-2" d="M48,40a1,1,0,0,1-1-1.16l2-12a1,1,0,1,1,2,.32l-2,12A1,1,0,0,1,48,40Z"/><circle class="cls-5" cx="20" cy="5" r="1"/><path class="cls-5" d="M58,58H40a1,1,0,0,1,0-2H58a1,1,0,0,1,0,2Z"/><rect class="cls-5" x="40" y="42" width="4" height="2"/><rect class="cls-5" x="46" y="42" width="12" height="2"/><rect class="cls-5" x="40" y="46" width="4" height="2"/><rect class="cls-5" x="46" y="46" width="12" height="2"/><rect class="cls-5" x="40" y="50" width="4" height="2"/><rect class="cls-5" x="46" y="50" width="12" height="2"/><circle class="cls-5" cx="59" cy="21" r="1"/><path class="cls-6" d="M31,56H29a3,3,0,0,1-3-3V51a1,1,0,0,1,2,0v2a1,1,0,0,0,1,1h2a1,1,0,0,1,0,2Z"/></g></svg>