<svg xmlns="http://www.w3.org/2000/svg" viewBox="0 0 64 64"><defs><style>.cls-1{fill:#50d9d7;}.cls-2{fill:#00bebd;}.cls-3{fill:#93e6e5;}.cls-4{fill:#fff;}.cls-5{fill:#ffac00;}.cls-6{fill:#f3f3f3;}.cls-7{fill:#d9d9d9;}</style></defs><title>Rocket</title><g id="Rocket"><path class="cls-1" d="M62,19V58H2V19a3,3,0,0,1,3-3H59A3,3,0,0,1,62,19Z"/><path class="cls-2" d="M1,58H63a1,1,0,0,1,1,1v2a3,3,0,0,1-3,3H3a3,3,0,0,1-3-3V59A1,1,0,0,1,1,58Z"/><path class="cls-3" d="M60,19v4H20l-4-5H59A1,1,0,0,1,60,19Z"/><path class="cls-4" d="M60,23V56H4V19a1,1,0,0,1,1-1H19.08a4,4,0,0,1,3.12,1.5c1.55,1.94,1.64,2.06,1.75,2.17a4,4,0,0,0,3,1.33Z"/><path class="cls-5" d="M13,45a1,1,0,0,1-1-1V31.5a6,6,0,0,1,2.4-4.8l6-4.5A1,1,0,0,1,22,23V39a1,1,0,0,1-.47.85C12.82,45.29,13.41,45,13,45Z"/><path class="cls-5" d="M50.47,44.85l-8-5A1,1,0,0,1,42,39V23a1,1,0,0,1,1.6-.8l6,4.5A6,6,0,0,1,52,31.5V44A1,1,0,0,1,50.47,44.85Z"/><path class="cls-6" d="M39,60H25a2,2,0,0,1-2-2H41A2,2,0,0,1,39,60Z"/><path class="cls-1" d="M44,43H20a1,1,0,0,1-1-1V21.89A25.26,25.26,0,0,1,31.5.14a1,1,0,0,1,1,0A25.26,25.26,0,0,1,45,21.89V42A1,1,0,0,1,44,43Z"/><path class="cls-2" d="M41,45H23a2,2,0,0,1-2-2H43A2,2,0,0,1,41,45Z"/><path class="cls-7" d="M56,55v1H8V55a4,4,0,0,1,4-4h4a4,4,0,0,1,4-4h4a2,2,0,0,0,2-2H38a2,2,0,0,0,2,2h4a4,4,0,0,1,4,4h4A4,4,0,0,1,56,55Z"/><circle class="cls-2" cx="32" cy="17" r="7"/><circle class="cls-3" cx="32" cy="17" r="5"/><path class="cls-4" d="M27,37a1,1,0,0,1-.71-.29l-3-3a1,1,0,0,1,0-1.42l3-3a1,1,0,0,1,1.42,1.42L25.41,33l2.3,2.29A1,1,0,0,1,27,37Z"/><path class="cls-4" d="M37,37a1,1,0,0,1-.71-1.71L38.59,33l-2.3-2.29a1,1,0,0,1,1.42-1.42l3,3a1,1,0,0,1,0,1.42l-3,3A1,1,0,0,1,37,37Z"/><path class="cls-4" d="M31,39a1,1,0,0,1-1-1.2l2-10a1,1,0,1,1,2,.4l-2,10A1,1,0,0,1,31,39Z"/><rect class="cls-7" x="6" y="20" width="8" height="2"/><rect class="cls-7" x="6" y="24" width="5" height="2"/></g></svg>