<svg xmlns="http://www.w3.org/2000/svg" viewBox="0 0 64 64"><defs><style>.cls-1{fill:#50d9d7;}.cls-2{fill:#93e6e5;}.cls-3{fill:#f3f3f3;}.cls-4{fill:#d9d9d9;}.cls-5{fill:#ffac00;}.cls-6{fill:#00bebd;}.cls-7{fill:#fff;}</style></defs><title>Searching</title><g id="Searching"><path class="cls-1" d="M42,57a1,1,0,0,1-.71-.29l-10-10a1,1,0,0,1,1.42-1.42l10,10A1,1,0,0,1,42,57Z"/><path class="cls-1" d="M62,37H8c-1.1,0-2,3.11-2,2V2A2,2,0,0,1,8,0H62a2,2,0,0,1,2,2V39C64,40.1,63.1,37,62,37Z"/><path class="cls-2" d="M51,44H17V0H36.53A4,4,0,0,1,40.11,2.2l.78,1.58A4,4,0,0,0,44.47,6H51Z"/><path class="cls-3" d="M64,6V48a2,2,0,0,1-2,2H2a2,2,0,0,1-2-2V2A2,2,0,0,1,2,0H19.53a4,4,0,0,1,3.58,2.21l.78,1.58A4,4,0,0,0,27.47,6Z"/><rect class="cls-4" x="11" y="9" width="2" height="30"/><rect class="cls-1" x="4" y="11" width="4" height="2"/><rect class="cls-1" x="4" y="17" width="4" height="2"/><rect class="cls-1" x="4" y="23" width="4" height="2"/><rect class="cls-1" x="4" y="29" width="4" height="2"/><rect class="cls-1" x="4" y="35" width="4" height="2"/><rect class="cls-1" x="16" y="23" width="8" height="2"/><rect class="cls-1" x="28" y="23" width="16" height="2"/><rect class="cls-1" x="16" y="17" width="4" height="2"/><rect class="cls-1" x="24" y="17" width="14" height="2"/><rect class="cls-5" x="16" y="11" width="8" height="2"/><rect class="cls-1" x="28" y="11" width="10" height="2"/><rect class="cls-1" x="42" y="11" width="6" height="2"/><rect class="cls-5" x="16" y="29" width="8" height="2"/><rect class="cls-1" x="28" y="29" width="10" height="2"/><rect class="cls-5" x="42" y="17" width="6" height="2"/><rect class="cls-1" x="16" y="35" width="4" height="2"/><circle class="cls-6" cx="60" cy="2.99" r="1"/><circle class="cls-6" cx="56" cy="2.99" r="1"/><circle class="cls-6" cx="52" cy="2.99" r="1"/><circle class="cls-2" cx="20" cy="2.99" r="1"/><path class="cls-4" d="M18.58,50a14,14,0,1,1,26.84,0Z"/><circle class="cls-1" cx="32" cy="46" r="12"/><circle class="cls-2" cx="32" cy="46" r="10"/><path class="cls-7" d="M28,50a1,1,0,0,1-.71-.29l-3-3a1,1,0,0,1,0-1.42l3-3a1,1,0,0,1,1.42,1.42L26.41,46l2.3,2.29A1,1,0,0,1,28,50Z"/><path class="cls-7" d="M36,50a1,1,0,0,1-.71-1.71L37.59,46l-2.3-2.29a1,1,0,0,1,1.42-1.42l3,3a1,1,0,0,1,0,1.42l-3,3A1,1,0,0,1,36,50Z"/><path class="cls-7" d="M31,52a1,1,0,0,1-1-1.2l2-10a1,1,0,1,1,2,.4l-2,10A1,1,0,0,1,31,52Z"/><path class="cls-5" d="M42.29,54.7l-1.58,1.58a1,1,0,0,0,0,1.42l5.68,5.68a2.12,2.12,0,1,0,3-3L43.71,54.7A1,1,0,0,0,42.29,54.7Z"/><rect class="cls-4" x="52" y="41" width="8" height="2"/><rect class="cls-4" x="56" y="37" width="4" height="2"/></g></svg>