<svg xmlns="http://www.w3.org/2000/svg" viewBox="0 0 64 64"><defs><style>.cls-1{fill:#ffac00;}.cls-2{fill:#50d9d7;}.cls-3{fill:#fff;}.cls-4{fill:#00bebd;}.cls-5{fill:#f3f3f3;}.cls-6{fill:#ea9706;}.cls-7{fill:#d9d9d9;}.cls-8{fill:#93e6e5;}</style></defs><title>Shopping</title><g id="Shopping"><path class="cls-1" d="M64,24.42V50c0,6.12-3,7.88-3,14H34c0-2.5.23-4.7-1.75-7.19L30,54V15H54l5,2A8,8,0,0,1,64,24.42Z"/><path class="cls-2" d="M54,8V46a8,8,0,0,1-8,8H28a8,8,0,0,1-8-8V8a8,8,0,0,1,8-8H46A8,8,0,0,1,54,8Z"/><path class="cls-3" d="M51,7V46a4,4,0,0,1-2.22,3.58c-1.19.6-.25.42-21.78.42a4,4,0,0,1-4-4V7a4,4,0,0,1,4-4h1.56a2,2,0,0,1,1.9,1.37l.08.26A2,2,0,0,0,32.44,6h9.12a2,2,0,0,0,1.9-1.37l.08-.26A2,2,0,0,1,45.44,3H47A4,4,0,0,1,51,7Z"/><path class="cls-2" d="M46,40a3,3,0,0,1-3,3H31a3,3,0,0,1,0-6H43A3,3,0,0,1,46,40Z"/><path class="cls-4" d="M54,33.08V46a8,8,0,0,1-2.45,5.76,15.74,15.74,0,0,1-2.77-2.18A4,4,0,0,0,51,46V32.63Z"/><path class="cls-5" d="M51,32.63V46a4,4,0,0,1-2.22,3.58,15.07,15.07,0,0,1-3.36-5.08A21.8,21.8,0,0,1,42.21,43H43a3,3,0,0,0,0-6H38.15A8.72,8.72,0,0,1,38,35.38a4.06,4.06,0,0,1,4-4.05C42.46,31.33,41.84,31.26,51,32.63Z"/><path class="cls-4" d="M46,40a3,3,0,0,1-3,3h-.79a9,9,0,0,1-4.06-6H43A3,3,0,0,1,46,40Z"/><path class="cls-1" d="M60,36V52h-.51A13.17,13.17,0,0,1,47,43l-2.76-1.18A7,7,0,0,1,40,35.38h0a2.06,2.06,0,0,1,2.36-2Z"/><path class="cls-6" d="M61,35.15a1,1,0,0,1-1.14.84L54,35.09v-2l6.15.95A1,1,0,0,1,61,35.15Z"/><path class="cls-7" d="M43,48H31a1,1,0,0,1,0-2H43a1,1,0,0,1,0,2Z"/><path class="cls-8" d="M37,9A11,11,0,1,0,48,20,11,11,0,0,0,37,9Zm0,13a2,2,0,1,1,2-2A2,2,0,0,1,37,22Z"/><path class="cls-8" d="M37,9A11,11,0,1,0,48,20,11,11,0,0,0,37,9Zm0,13a2,2,0,1,1,2-2A2,2,0,0,1,37,22Z"/><path class="cls-4" d="M37,16a4,4,0,1,0,4,4A4,4,0,0,0,37,16Zm0,6a2,2,0,1,1,2-2A2,2,0,0,1,37,22Z"/><path class="cls-2" d="M45,21a1,1,0,0,1-1-1,7,7,0,0,0-7-7,1,1,0,0,1,0-2,9,9,0,0,1,9,9A1,1,0,0,1,45,21Z"/><path class="cls-2" d="M37,29a9,9,0,0,1-9-9,1,1,0,0,1,2,0,7,7,0,0,0,7,7,1,1,0,0,1,0,2Z"/><path class="cls-4" d="M23.84,4.55A4,4,0,0,0,23,7V20.65a14.13,14.13,0,0,1-3,2.83V8a8,8,0,0,1,2.23-5.55A13.14,13.14,0,0,1,23.84,4.55Z"/><path class="cls-7" d="M23,20.65V7a4,4,0,0,1,.84-2.45A14,14,0,0,1,23,20.65Z"/><circle class="cls-5" cx="12" cy="12" r="12"/><path class="cls-1" d="M16.9,19H7.1a1,1,0,0,1-1-1.1l.8-8a1,1,0,0,1,1-.9h8.2a1,1,0,0,1,1,.9l.8,8A1,1,0,0,1,16.9,19Z"/><path class="cls-6" d="M14,11a1,1,0,0,1-1-1V8a1,1,0,0,0-2,0v2a1,1,0,0,1-2,0V8a3,3,0,0,1,6,0v2A1,1,0,0,1,14,11Z"/></g></svg>