<svg xmlns="http://www.w3.org/2000/svg" viewBox="0 0 64 64"><defs><style>.cls-1{fill:#ffac00;}.cls-2{fill:#50d9d7;}.cls-3{fill:#00bebd;}.cls-4{fill:#fff;}.cls-5{fill:#00aaa8;}.cls-6{fill:#d9d9d9;}</style></defs><title>Typing</title><g id="Typing"><path class="cls-1" d="M42,45a1,1,0,0,1-1-1V42.92a6.18,6.18,0,0,1,3-5.28,4.17,4.17,0,0,0,2-3.56V32a1,1,0,0,1,2,0v2.08a6.18,6.18,0,0,1-3,5.28,4.17,4.17,0,0,0-2,3.56V44A1,1,0,0,1,42,45Z"/><rect class="cls-2" x="11" width="42" height="32" rx="2"/><polygon class="cls-3" points="38 38 26 38 27 32 37 32 38 38"/><path class="cls-2" d="M39,38H25a1,1,0,0,1,0-2H39a1,1,0,0,1,0,2Z"/><path class="cls-3" d="M9,44H55a2,2,0,0,1,2,2V61a0,0,0,0,1,0,0H7a0,0,0,0,1,0,0V46A2,2,0,0,1,9,44Z"/><rect class="cls-4" x="13" y="2" width="38" height="26"/><path class="cls-1" d="M26,20a1,1,0,0,1-.71-.29l-4-4a1,1,0,0,1,0-1.42l4-4a1,1,0,0,1,1.42,1.42L23.41,15l3.3,3.29A1,1,0,0,1,26,20Z"/><path class="cls-1" d="M38,20a1,1,0,0,1-.71-1.71L40.59,15l-3.3-3.29a1,1,0,0,1,1.42-1.42l4,4a1,1,0,0,1,0,1.42l-4,4A1,1,0,0,1,38,20Z"/><path class="cls-1" d="M30,22a1,1,0,0,1-.95-1.32l4-12a1,1,0,0,1,1.9.64l-4,12A1,1,0,0,1,30,22Z"/><path class="cls-2" d="M13,49H11a1,1,0,0,1,0-2h2a1,1,0,0,1,0,2Z"/><path class="cls-2" d="M21,49H19a1,1,0,0,1,0-2h2a1,1,0,0,1,0,2Z"/><path class="cls-2" d="M29,49H27a1,1,0,0,1,0-2h2a1,1,0,0,1,0,2Z"/><path class="cls-2" d="M37,49H35a1,1,0,0,1,0-2h2a1,1,0,0,1,0,2Z"/><path class="cls-2" d="M45,49H43a1,1,0,0,1,0-2h2a1,1,0,0,1,0,2Z"/><path class="cls-2" d="M53,49H51a1,1,0,0,1,0-2h2a1,1,0,0,1,0,2Z"/><path class="cls-2" d="M13,54H11a1,1,0,0,1,0-2h2a1,1,0,0,1,0,2Z"/><path class="cls-2" d="M21,54H19a1,1,0,0,1,0-2h2a1,1,0,0,1,0,2Z"/><path class="cls-2" d="M29,54H27a1,1,0,0,1,0-2h2a1,1,0,0,1,0,2Z"/><path class="cls-2" d="M37,54H35a1,1,0,0,1,0-2h2a1,1,0,0,1,0,2Z"/><path class="cls-2" d="M45,54H43a1,1,0,0,1,0-2h2a1,1,0,0,1,0,2Z"/><path class="cls-2" d="M53,54H51a1,1,0,0,1,0-2h2a1,1,0,0,1,0,2Z"/><path class="cls-2" d="M13,59H11a1,1,0,0,1,0-2h2a1,1,0,0,1,0,2Z"/><path class="cls-2" d="M45,59H19a1,1,0,0,1,0-2H45a1,1,0,0,1,0,2Z"/><path class="cls-2" d="M53,59H51a1,1,0,0,1,0-2h2a1,1,0,0,1,0,2Z"/><path class="cls-5" d="M7,61H57a0,0,0,0,1,0,0v1a2,2,0,0,1-2,2H9a2,2,0,0,1-2-2V61A0,0,0,0,1,7,61Z"/><rect class="cls-6" x="16" y="4" width="8" height="2"/><rect class="cls-6" x="16" y="8" width="4" height="2"/><rect class="cls-6" x="44" y="20" width="4" height="2" transform="translate(92 42) rotate(-180)"/><rect class="cls-6" x="44" y="24" width="4" height="2" transform="translate(92 50) rotate(-180)"/></g></svg>