<svg xmlns="http://www.w3.org/2000/svg" viewBox="0 0 64 64"><defs><style>.cls-1{fill:#50d9d7;}.cls-2{fill:#00bebd;}.cls-3{fill:#f3f3f3;}.cls-4{fill:#d9d9d9;}.cls-5{fill:#ea9706;}.cls-6{fill:#ffac00;}.cls-7{fill:#fff;}</style></defs><title>Upload</title><g id="Upload"><path class="cls-1" d="M39.79,9.39l-7-9a1,1,0,0,0-1.58,0l-7,9A1,1,0,0,0,25,11h3V29a1,1,0,0,0,1,1h6a1,1,0,0,0,1-1V11h3A1,1,0,0,0,39.79,9.39Z"/><path class="cls-1" d="M22,18.83c-.06-.34.45.39-7.2-9.44a1,1,0,0,0-1.58,0l-7,9A1,1,0,0,0,7,20h3V38a1,1,0,0,0,1,1h6a1,1,0,0,0,1-1V20h3A1,1,0,0,0,22,18.83Z"/><path class="cls-2" d="M18,22.06V38a1,1,0,0,1-1,1H11a1,1,0,0,1-1-1c0-8.27-.05-7.95.05-8A9,9,0,0,1,18,22.06Z"/><path class="cls-2" d="M36,15.54V29a1,1,0,0,1-1,1H29a1,1,0,0,1-1-1V15.54A15.08,15.08,0,0,1,36,15.54Z"/><path class="cls-3" d="M58,41A11,11,0,0,1,47,52H17a11,11,0,0,1-5-20.81A1.21,1.21,0,0,1,12,31a7,7,0,0,1,8.4-6.86,13,13,0,0,1,22.38-1.4h0A13,13,0,0,1,45,30a1.09,1.09,0,0,1,0,.18h0A11,11,0,0,1,58,41Z"/><path class="cls-4" d="M56.22,35A3,3,0,0,1,54,36H48a3,3,0,0,1-3-3V30.18A11,11,0,0,1,56.22,35Z"/><path class="cls-1" d="M54,34H48a1,1,0,0,1-1-1V21H44a1,1,0,0,1-.79-1.61l7-9a1,1,0,0,1,1.58,0l7,9A1,1,0,0,1,58,21H55V33A1,1,0,0,1,54,34Z"/><path class="cls-4" d="M46,52H18a14,14,0,0,1,28,0Z"/><circle class="cls-5" cx="32" cy="52" r="12"/><circle class="cls-6" cx="32" cy="52" r="10"/><path class="cls-7" d="M28,56a1,1,0,0,1-.71-.29l-3-3a1,1,0,0,1,0-1.42l3-3a1,1,0,0,1,1.42,1.42L26.41,52l2.3,2.29A1,1,0,0,1,28,56Z"/><path class="cls-7" d="M36,56a1,1,0,0,1-.71-1.71L37.59,52l-2.3-2.29a1,1,0,0,1,1.42-1.42l3,3a1,1,0,0,1,0,1.42l-3,3A1,1,0,0,1,36,56Z"/><path class="cls-7" d="M31,58a1,1,0,0,1-1-1.2l2-10a1,1,0,1,1,2,.4l-2,10A1,1,0,0,1,31,58Z"/></g></svg>