<svg xmlns="http://www.w3.org/2000/svg" viewBox="0 0 64 64"><defs><style>.cls-1{fill:#50d9d7;}.cls-2{fill:#00bebd;}.cls-3{fill:#93e6e5;}.cls-4{fill:#fff;}.cls-5{fill:#f3f3f3;}.cls-6{fill:#00aaa8;}.cls-7{fill:#d9d9d9;}.cls-8{fill:#ffac00;}</style></defs><title>Virus Laptop</title><g id="Virus_Laptop" data-name="Virus Laptop"><path class="cls-1" d="M62,18V57H2V18a3,3,0,0,1,3-3H59A3,3,0,0,1,62,18Z"/><path class="cls-2" d="M1,57H63a1,1,0,0,1,1,1v2a3,3,0,0,1-3,3H3a3,3,0,0,1-3-3V58A1,1,0,0,1,1,57Z"/><path class="cls-3" d="M60,18v4H20l-4-5H59A1,1,0,0,1,60,18Z"/><path class="cls-4" d="M60,22V55H4V18a1,1,0,0,1,1-1H19.08a4,4,0,0,1,3.12,1.5c1.55,1.94,1.64,2.06,1.75,2.17a4,4,0,0,0,3,1.33Z"/><path class="cls-5" d="M39,59H25a2,2,0,0,1-2-2H41A2,2,0,0,1,39,59Z"/><path class="cls-6" d="M14,38a20.33,20.33,0,0,1-3-.72A3,3,0,0,1,8.77,35L8,31.2a1,1,0,1,1,2-.4l.75,3.76a1,1,0,0,0,.74.78l2.77.69A1,1,0,0,1,14,38Z"/><path class="cls-6" d="M9,50a1,1,0,0,1-1-1.2L8.77,45A3,3,0,0,1,11,42.72L13.76,42A1,1,0,1,1,14.24,44l-2.77.69a1,1,0,0,0-.74.78L10,49.2A1,1,0,0,1,9,50Z"/><path class="cls-2" d="M17,31a.93.93,0,0,1-.45-.11A4.59,4.59,0,0,1,14,26.76V26a1,1,0,0,1,2,0v.76a2.61,2.61,0,0,0,1.45,2.35A1,1,0,0,1,17,31Z"/><path class="cls-6" d="M13,41H7a1,1,0,0,1,0-2h6a1,1,0,0,1,0,2Z"/><path class="cls-6" d="M24,38a1,1,0,0,1-.24-2l2.77-.69a1,1,0,0,0,.74-.78L28,30.8a1,1,0,1,1,2,.4L29.23,35A3,3,0,0,1,27,37.28,24.45,24.45,0,0,1,24,38Z"/><path class="cls-6" d="M29,50a1,1,0,0,1-1-.8l-.75-3.76a1,1,0,0,0-.74-.78L23.76,44A1,1,0,0,1,24.24,42l2.77.69A3,3,0,0,1,29.23,45L30,48.8A1,1,0,0,1,29,50Z"/><path class="cls-2" d="M21,31a1,1,0,0,1-.45-1.89A2.61,2.61,0,0,0,22,26.76V26a1,1,0,0,1,2,0v.76C24,29.34,21.86,31,21,31Z"/><path class="cls-6" d="M31,41H25a1,1,0,0,1,0-2h6a1,1,0,0,1,0,2Z"/><path class="cls-1" d="M23,34H15V32a4,4,0,0,1,8,0Z"/><path class="cls-2" d="M19,50a7,7,0,0,1-7-7V36a2,2,0,0,1,2-2H24a2,2,0,0,1,2,2v7A7,7,0,0,1,19,50Z"/><rect class="cls-7" x="37" y="31" width="21" height="2"/><rect class="cls-7" x="37" y="35" width="18" height="2"/><rect class="cls-7" x="37" y="39" width="12" height="2"/><path class="cls-2" d="M62,18v4H60V18a1,1,0,0,0-1-1H40.71L42,15H59A3,3,0,0,1,62,18Z"/><path class="cls-1" d="M60,18v4H43a3,3,0,0,1-2.55-4.59l.26-.41H59A1,1,0,0,1,60,18Z"/><path class="cls-8" d="M63,20H43a1.07,1.07,0,0,1-.85-1.62l10-16.92a1,1,0,0,1,1.7,0l10,16.92A1.07,1.07,0,0,1,63,20Z"/><path class="cls-1" d="M47,50H39a2,2,0,0,1,0-4h8a2,2,0,0,1,0,4Z"/><path class="cls-5" d="M51.86,13l-.58-4A1.73,1.73,0,0,1,53,7h0a1.73,1.73,0,0,1,1.72,2l-.58,4A1.15,1.15,0,0,1,51.86,13Z"/><circle class="cls-5" cx="53" cy="17" r="1"/><circle class="cls-7" cx="19" cy="20" r="1"/></g></svg>