<svg xmlns="http://www.w3.org/2000/svg" viewBox="0 0 64 64"><defs><style>.cls-1{fill:#50d9d7;}.cls-2{fill:#00bebd;}.cls-3{fill:#93e6e5;}.cls-4{fill:#fff;}.cls-5{fill:#00aaa8;}.cls-6{fill:#d9d9d9;}.cls-7{fill:#f3f3f3;}.cls-8{fill:#ffac00;}</style></defs><title>Virus Computer</title><g id="Virus_Computer" data-name="Virus Computer"><rect class="cls-1" x="1" y="6" width="62" height="48" rx="4"/><path class="cls-2" d="M44,64H20a13.7,13.7,0,0,0,4-10H40A13.68,13.68,0,0,0,44,64Z"/><path class="cls-1" d="M45,64H19a1,1,0,0,1,0-2H45a1,1,0,0,1,0,2Z"/><rect class="cls-3" x="4" y="9" width="56" height="40" rx="1"/><path class="cls-4" d="M60,14V48a1,1,0,0,1-1,1H5a1,1,0,0,1-1-1V10A1,1,0,0,1,5,9C21.39,9,20.33,9,21,9.11a4,4,0,0,1,2.2,1.39l1.6,2A4,4,0,0,0,27.92,14Z"/><path class="cls-5" d="M14,32a20.33,20.33,0,0,1-3-.72A3,3,0,0,1,8.77,29L8,25.2a1,1,0,1,1,2-.4l.75,3.76a1,1,0,0,0,.74.78l2.77.69A1,1,0,0,1,14,32Z"/><path class="cls-5" d="M9,44a1,1,0,0,1-1-1.2L8.77,39A3,3,0,0,1,11,36.72L13.76,36A1,1,0,0,1,14.24,38l-2.77.69a1,1,0,0,0-.74.78L10,43.2A1,1,0,0,1,9,44Z"/><path class="cls-2" d="M17,25a.93.93,0,0,1-.45-.11A4.59,4.59,0,0,1,14,20.76V20a1,1,0,0,1,2,0v.76a2.61,2.61,0,0,0,1.45,2.35A1,1,0,0,1,17,25Z"/><path class="cls-5" d="M13,35H7a1,1,0,0,1,0-2h6a1,1,0,0,1,0,2Z"/><path class="cls-5" d="M24,32a1,1,0,0,1-.24-2l2.77-.69a1,1,0,0,0,.74-.78L28,24.8a1,1,0,1,1,2,.4L29.23,29A3,3,0,0,1,27,31.28,24.45,24.45,0,0,1,24,32Z"/><path class="cls-5" d="M29,44a1,1,0,0,1-1-.8l-.75-3.76a1,1,0,0,0-.74-.78L23.76,38A1,1,0,0,1,24.24,36l2.77.69A3,3,0,0,1,29.23,39L30,42.8A1,1,0,0,1,29,44Z"/><path class="cls-2" d="M21,25a1,1,0,0,1-.45-1.89A2.61,2.61,0,0,0,22,20.76V20a1,1,0,0,1,2,0v.76C24,23.34,21.86,25,21,25Z"/><path class="cls-5" d="M31,35H25a1,1,0,0,1,0-2h6a1,1,0,0,1,0,2Z"/><path class="cls-1" d="M23,28H15V26a4,4,0,0,1,8,0Z"/><path class="cls-2" d="M19,44a7,7,0,0,1-7-7V30a2,2,0,0,1,2-2H24a2,2,0,0,1,2,2v7A7,7,0,0,1,19,44Z"/><rect class="cls-6" x="37" y="25" width="21" height="2"/><rect class="cls-6" x="37" y="29" width="18" height="2"/><rect class="cls-6" x="37" y="33" width="12" height="2"/><path class="cls-1" d="M47,44H39a2,2,0,0,1,0-4h8a2,2,0,0,1,0,4Z"/><polygon class="cls-2" points="53.53 9 36.47 9 38.34 6 51.66 6 53.53 9"/><polygon class="cls-1" points="56.66 14 33.34 14 36.47 9 53.53 9 56.66 14"/><path class="cls-7" d="M55,20H35a3,3,0,0,1-2.54-4.59L33.34,14H56.66l.88,1.41A3,3,0,0,1,55,20Z"/><path class="cls-8" d="M55,18H35a1,1,0,0,1-.85-1.53l10-16a1,1,0,0,1,1.7,0l10,16A1,1,0,0,1,55,18Z"/><path class="cls-7" d="M43.86,11l-.58-4A1.73,1.73,0,0,1,45,5h0a1.73,1.73,0,0,1,1.72,2l-.58,4A1.15,1.15,0,0,1,43.86,11Z"/><circle class="cls-7" cx="45" cy="15" r="1"/><circle class="cls-6" cx="20" cy="12" r="1"/></g></svg>