<?xml version="1.0" standalone="no"?>
<svg xmlns:xlink="http://www.w3.org/1999/xlink" id="wave" style="transform:rotate(0deg); transition: 0.3s" viewBox="0 0 1440 490" version="1.1" xmlns="http://www.w3.org/2000/svg"><defs><linearGradient id="sw-gradient-0" x1="0" x2="0" y1="1" y2="0"><stop stop-color="rgba(243, 106, 62, 1)" offset="0%"/><stop stop-color="rgba(255, 179, 11, 1)" offset="100%"/></linearGradient></defs><path style="transform:translate(0, 0px); opacity:1" fill="url(#sw-gradient-0)" d="M0,294L24,310.3C48,327,96,359,144,310.3C192,261,240,131,288,106.2C336,82,384,163,432,228.7C480,294,528,343,576,351.2C624,359,672,327,720,302.2C768,278,816,261,864,253.2C912,245,960,245,1008,253.2C1056,261,1104,278,1152,236.8C1200,196,1248,98,1296,73.5C1344,49,1392,98,1440,171.5C1488,245,1536,343,1584,343C1632,343,1680,245,1728,228.7C1776,212,1824,278,1872,318.5C1920,359,1968,376,2016,318.5C2064,261,2112,131,2160,81.7C2208,33,2256,65,2304,106.2C2352,147,2400,196,2448,196C2496,196,2544,147,2592,171.5C2640,196,2688,294,2736,318.5C2784,343,2832,294,2880,302.2C2928,310,2976,376,3024,343C3072,310,3120,180,3168,114.3C3216,49,3264,49,3312,73.5C3360,98,3408,147,3432,171.5L3456,196L3456,490L3432,490C3408,490,3360,490,3312,490C3264,490,3216,490,3168,490C3120,490,3072,490,3024,490C2976,490,2928,490,2880,490C2832,490,2784,490,2736,490C2688,490,2640,490,2592,490C2544,490,2496,490,2448,490C2400,490,2352,490,2304,490C2256,490,2208,490,2160,490C2112,490,2064,490,2016,490C1968,490,1920,490,1872,490C1824,490,1776,490,1728,490C1680,490,1632,490,1584,490C1536,490,1488,490,1440,490C1392,490,1344,490,1296,490C1248,490,1200,490,1152,490C1104,490,1056,490,1008,490C960,490,912,490,864,490C816,490,768,490,720,490C672,490,624,490,576,490C528,490,480,490,432,490C384,490,336,490,288,490C240,490,192,490,144,490C96,490,48,490,24,490L0,490Z"/><defs><linearGradient id="sw-gradient-1" x1="0" x2="0" y1="1" y2="0"><stop stop-color="rgba(243, 106, 62, 1)" offset="0%"/><stop stop-color="rgba(255, 179, 11, 1)" offset="100%"/></linearGradient></defs><path style="transform:translate(0, 50px); opacity:0.9" fill="url(#sw-gradient-1)" d="M0,98L24,114.3C48,131,96,163,144,220.5C192,278,240,359,288,326.7C336,294,384,147,432,114.3C480,82,528,163,576,179.7C624,196,672,147,720,130.7C768,114,816,131,864,163.3C912,196,960,245,1008,269.5C1056,294,1104,294,1152,269.5C1200,245,1248,196,1296,147C1344,98,1392,49,1440,81.7C1488,114,1536,229,1584,253.2C1632,278,1680,212,1728,212.3C1776,212,1824,278,1872,269.5C1920,261,1968,180,2016,147C2064,114,2112,131,2160,130.7C2208,131,2256,114,2304,98C2352,82,2400,65,2448,65.3C2496,65,2544,82,2592,81.7C2640,82,2688,65,2736,73.5C2784,82,2832,114,2880,122.5C2928,131,2976,114,3024,155.2C3072,196,3120,294,3168,310.3C3216,327,3264,261,3312,228.7C3360,196,3408,196,3432,196L3456,196L3456,490L3432,490C3408,490,3360,490,3312,490C3264,490,3216,490,3168,490C3120,490,3072,490,3024,490C2976,490,2928,490,2880,490C2832,490,2784,490,2736,490C2688,490,2640,490,2592,490C2544,490,2496,490,2448,490C2400,490,2352,490,2304,490C2256,490,2208,490,2160,490C2112,490,2064,490,2016,490C1968,490,1920,490,1872,490C1824,490,1776,490,1728,490C1680,490,1632,490,1584,490C1536,490,1488,490,1440,490C1392,490,1344,490,1296,490C1248,490,1200,490,1152,490C1104,490,1056,490,1008,490C960,490,912,490,864,490C816,490,768,490,720,490C672,490,624,490,576,490C528,490,480,490,432,490C384,490,336,490,288,490C240,490,192,490,144,490C96,490,48,490,24,490L0,490Z"/></svg>